<?xml version="1.0" encoding="UTF-8" standalone="no"?><!DOCTYPE svg PUBLIC "-//W3C//DTD SVG 1.1//EN" "http://www.w3.org/Graphics/SVG/1.1/DTD/svg11.dtd"><svg width="100%" height="100%" viewBox="0 0 72 72" version="1.1" xmlns="http://www.w3.org/2000/svg" xmlns:xlink="http://www.w3.org/1999/xlink" xml:space="preserve" xmlns:serif="http://www.serif.com/" style="fill-rule:evenodd;clip-rule:evenodd;stroke-linejoin:round;stroke-miterlimit:2;"><rect id="Custom_action" x="-0" y="0" width="72" height="72" style="fill:none;"/><rect id="Background" x="-0" y="0" width="72" height="72" style="fill:#1f1f1f;"/><path id="Icon" d="M56.658,32.394l-1.65,-1.68c-0.456,-0.464 -1.194,-0.464 -1.65,0l-0.825,0.84l-2.107,-2.145c0.41,-1.582 0.026,-3.333 -1.192,-4.573l-3.3,-3.358c-4.556,-4.637 -11.943,-4.637 -16.5,-0l6.6,3.358l0,1.392c0,1.259 0.492,2.468 1.367,3.358l3.583,3.647c1.219,1.24 2.939,1.632 4.493,1.214l2.107,2.145l-0.824,0.839c-0.456,0.464 -0.456,1.216 -0,1.68l1.65,1.679c0.455,0.464 1.194,0.464 1.65,0l6.599,-6.717c0.455,-0.463 0.455,-1.215 -0.001,-1.679Zm-20.907,-1.128c-0.27,-0.275 -0.499,-0.578 -0.718,-0.887l-18.601,17.676c-1.865,1.773 -1.915,4.764 -0.112,6.601c1.804,1.836 4.744,1.785 6.485,-0.114l17.364,-18.931c-0.289,-0.216 -0.576,-0.435 -0.835,-0.698l-3.583,-3.647Z" style="fill-rule:nonzero;"/><path id="Icon1" serif:id="Icon" d="M56.658,31.394l-1.65,-1.68c-0.456,-0.464 -1.194,-0.464 -1.65,0l-0.825,0.84l-2.107,-2.145c0.41,-1.582 0.026,-3.333 -1.192,-4.573l-3.3,-3.358c-4.556,-4.637 -11.943,-4.637 -16.5,-0l6.6,3.358l0,1.392c0,1.259 0.492,2.468 1.367,3.358l3.583,3.647c1.219,1.24 2.939,1.632 4.493,1.214l2.107,2.145l-0.824,0.839c-0.456,0.464 -0.456,1.216 -0,1.68l1.65,1.679c0.455,0.464 1.194,0.464 1.65,0l6.599,-6.717c0.455,-0.463 0.455,-1.215 -0.001,-1.679Zm-20.907,-1.128c-0.27,-0.275 -0.499,-0.578 -0.718,-0.887l-18.601,17.676c-1.865,1.773 -1.915,4.764 -0.112,6.601c1.804,1.836 4.744,1.785 6.485,-0.114l17.364,-18.931c-0.289,-0.216 -0.576,-0.435 -0.835,-0.698l-3.583,-3.647Z" style="fill:#d8d8d8;fill-rule:nonzero;"/></svg>