<?xml version="1.0" encoding="UTF-8" standalone="no"?><!DOCTYPE svg PUBLIC "-//W3C//DTD SVG 1.1//EN" "http://www.w3.org/Graphics/SVG/1.1/DTD/svg11.dtd"><svg width="100%" height="100%" viewBox="0 0 73 72" version="1.1" xmlns="http://www.w3.org/2000/svg" xmlns:xlink="http://www.w3.org/1999/xlink" xml:space="preserve" xmlns:serif="http://www.serif.com/" style="fill-rule:evenodd;clip-rule:evenodd;stroke-linejoin:round;stroke-miterlimit:2;"><rect id="Custom_action" x="0.019" y="0" width="72" height="72" style="fill:none;"/><path d="M61.595,31.047l-2.043,-2.043c-0.564,-0.564 -1.478,-0.564 -2.043,0l-1.021,1.021l-2.609,-2.609c0.509,-1.924 0.033,-4.053 -1.476,-5.562l-4.085,-4.085c-5.64,-5.641 -14.787,-5.641 -20.428,0l8.171,4.085l0,1.693c0,1.532 0.609,3.002 1.693,4.085l4.436,4.436c1.509,1.509 3.638,1.985 5.562,1.476l2.609,2.609l-1.021,1.021c-0.564,0.565 -0.564,1.479 0,2.043l2.043,2.043c0.564,0.565 1.479,0.565 2.043,0l8.171,-8.171c0.563,-0.563 0.563,-1.478 -0.002,-2.042Zm-25.884,-1.372c-0.334,-0.334 -0.618,-0.703 -0.889,-1.079l-23.03,21.502c-2.309,2.156 -2.371,5.795 -0.139,8.028c2.233,2.234 5.873,2.171 8.029,-0.138l21.498,-23.027c-0.358,-0.263 -0.713,-0.53 -1.033,-0.85l-4.436,-4.436Z" style="fill:#d8d8d8;fill-rule:nonzero;"/></svg>