<?xml version="1.0" encoding="UTF-8" standalone="no"?><!DOCTYPE svg PUBLIC "-//W3C//DTD SVG 1.1//EN" "http://www.w3.org/Graphics/SVG/1.1/DTD/svg11.dtd"><svg width="100%" height="100%" viewBox="0 0 72 72" version="1.1" xmlns="http://www.w3.org/2000/svg" xmlns:xlink="http://www.w3.org/1999/xlink" xml:space="preserve" xmlns:serif="http://www.serif.com/" style="fill-rule:evenodd;clip-rule:evenodd;stroke-linejoin:round;stroke-miterlimit:2;"><rect id="Editing" x="0" y="0" width="72" height="72" style="fill:none;"/><rect id="Background" x="0" y="-0" width="72" height="72" style="fill:#1f1f1f;"/><path id="Icon" d="M36,32.302l13.492,-14.33c0.027,-0.029 0.064,-0.045 0.102,-0.045c0.038,-0 0.075,0.016 0.102,0.045c-0,-0 -0,-0 -0,-0c2.184,2.32 2.184,6.082 -0,8.403l-9.638,10.237l3.42,3.633c0.743,-0.278 1.542,-0.429 2.374,-0.429c3.945,-0 7.148,3.402 7.148,7.592c0,4.19 -3.203,7.592 -7.148,7.592c-3.945,-0 -7.148,-3.402 -7.148,-7.592c0,-1.064 0.207,-2.078 0.58,-2.998l-3.284,-3.488l-3.284,3.488c0.373,0.92 0.58,1.934 0.58,2.998c-0,4.19 -3.203,7.592 -7.148,7.592c-3.945,-0 -7.148,-3.402 -7.148,-7.592c0,-4.19 3.203,-7.592 7.148,-7.592c0.832,-0 1.631,0.151 2.374,0.429l3.42,-3.633l-9.638,-10.237c-2.184,-2.321 -2.184,-6.083 0,-8.403c0,-0 0,-0 0,-0c0.027,-0.029 0.064,-0.045 0.102,-0.045c0.038,-0 0.075,0.016 0.102,0.045l13.492,14.33Zm9.852,11.31c1.973,-0 3.574,1.701 3.574,3.796c0,2.095 -1.601,3.796 -3.574,3.796c-1.972,-0 -3.574,-1.701 -3.574,-3.796c0,-2.095 1.602,-3.796 3.574,-3.796Zm-19.704,-0c1.972,-0 3.574,1.701 3.574,3.796c-0,2.095 -1.602,3.796 -3.574,3.796c-1.973,-0 -3.574,-1.701 -3.574,-3.796c-0,-2.095 1.601,-3.796 3.574,-3.796Z"/><path id="Icon1" serif:id="Icon" d="M36,31.375l13.492,-14.33c0.027,-0.029 0.064,-0.045 0.102,-0.045c0.038,0 0.075,0.016 0.102,0.045c-0,-0 -0,-0 -0,-0c2.184,2.32 2.184,6.082 -0,8.403l-9.638,10.237l3.42,3.633c0.743,-0.278 1.542,-0.429 2.374,-0.429c3.945,-0 7.148,3.402 7.148,7.592c0,4.19 -3.203,7.592 -7.148,7.592c-3.945,0 -7.148,-3.402 -7.148,-7.592c0,-1.064 0.207,-2.078 0.58,-2.998l-3.284,-3.488l-3.284,3.488c0.373,0.92 0.58,1.934 0.58,2.998c-0,4.19 -3.203,7.592 -7.148,7.592c-3.945,0 -7.148,-3.402 -7.148,-7.592c0,-4.19 3.203,-7.592 7.148,-7.592c0.832,-0 1.631,0.151 2.374,0.429l3.42,-3.633l-9.638,-10.237c-2.184,-2.321 -2.184,-6.083 0,-8.403c0,-0 0,-0 0,-0c0.027,-0.029 0.064,-0.045 0.102,-0.045c0.038,-0 0.075,0.016 0.102,0.045l13.492,14.33Zm9.852,11.31c1.973,-0 3.574,1.701 3.574,3.796c0,2.095 -1.601,3.796 -3.574,3.796c-1.972,0 -3.574,-1.701 -3.574,-3.796c0,-2.095 1.602,-3.796 3.574,-3.796Zm-19.704,-0c1.972,-0 3.574,1.701 3.574,3.796c-0,2.095 -1.602,3.796 -3.574,3.796c-1.973,0 -3.574,-1.701 -3.574,-3.796c-0,-2.095 1.601,-3.796 3.574,-3.796Z" style="fill:#d8d8d8;"/></svg>