<?xml version="1.0" encoding="UTF-8" standalone="no"?><!DOCTYPE svg PUBLIC "-//W3C//DTD SVG 1.1//EN" "http://www.w3.org/Graphics/SVG/1.1/DTD/svg11.dtd"><svg width="100%" height="100%" viewBox="0 0 72 72" version="1.1" xmlns="http://www.w3.org/2000/svg" xmlns:xlink="http://www.w3.org/1999/xlink" xml:space="preserve" xmlns:serif="http://www.serif.com/" style="fill-rule:evenodd;clip-rule:evenodd;stroke-linejoin:round;stroke-miterlimit:2;"><rect id="Editing" x="0" y="0" width="72" height="72" style="fill:none;"/><path d="M36,30.163l18.254,-20.1c0.036,-0.04 0.086,-0.063 0.138,-0.063c0.051,0 0.101,0.023 0.138,0.063c0,0 0,0 0,0c2.955,3.255 2.955,8.531 0,11.786l-13.04,14.36l4.627,5.096c1.006,-0.391 2.087,-0.603 3.212,-0.603c5.338,0 9.671,4.772 9.671,10.649c0,5.877 -4.333,10.649 -9.671,10.649c-5.337,0 -9.67,-4.772 -9.67,-10.649c0,-1.493 0.28,-2.914 0.784,-4.205l-4.443,-4.892l-4.443,4.892c0.504,1.291 0.784,2.712 0.784,4.205c0,5.877 -4.333,10.649 -9.67,10.649c-5.338,0 -9.671,-4.772 -9.671,-10.649c0,-5.877 4.333,-10.649 9.671,-10.649c1.125,0 2.206,0.212 3.212,0.603l4.627,-5.096l-13.04,-14.36c-2.955,-3.255 -2.955,-8.531 0,-11.786c0,0 0,0 0,0c0.037,-0.04 0.087,-0.063 0.138,-0.063c0.052,0 0.102,0.023 0.138,0.063l18.254,20.1Zm13.329,15.864c2.669,0 4.836,2.385 4.836,5.324c0,2.939 -2.167,5.325 -4.836,5.325c-2.668,0 -4.835,-2.386 -4.835,-5.325c0,-2.939 2.167,-5.324 4.835,-5.324Zm-26.658,0c2.668,0 4.835,2.385 4.835,5.324c0,2.939 -2.167,5.325 -4.835,5.325c-2.669,0 -4.836,-2.386 -4.836,-5.325c0,-2.939 2.167,-5.324 4.836,-5.324Z" style="fill:#d8d8d8;"/></svg>