<?xml version="1.0" encoding="UTF-8" standalone="no"?><!DOCTYPE svg PUBLIC "-//W3C//DTD SVG 1.1//EN" "http://www.w3.org/Graphics/SVG/1.1/DTD/svg11.dtd"><svg width="100%" height="100%" viewBox="0 0 72 72" version="1.1" xmlns="http://www.w3.org/2000/svg" xmlns:xlink="http://www.w3.org/1999/xlink" xml:space="preserve" xmlns:serif="http://www.serif.com/" style="fill-rule:evenodd;clip-rule:evenodd;stroke-linejoin:round;stroke-miterlimit:2;"><rect id="Game" x="-0" y="0" width="72" height="72" style="fill:none;"/><rect id="Background" x="-0" y="0" width="72" height="72" style="fill:#1f1f1f;"/><path id="Icon" d="M48.004,24.501l-24.003,-0c-0.001,-0 -0.001,-0 -0.002,-0c-6.582,-0 -11.999,5.416 -11.999,11.999c0,6.583 5.417,11.999 11.999,11.999c3.223,0 6.313,-1.298 8.569,-3.6l6.864,0c2.256,2.302 5.346,3.6 8.569,3.6c6.582,0 11.999,-5.416 11.999,-11.999c-0,-6.581 -5.414,-11.997 -11.996,-11.999Zm-17.404,12.899c0,0.494 -0.406,0.9 -0.9,0.9l-3.899,-0l-0,3.9c-0,0.493 -0.407,0.9 -0.9,0.9l-1.8,-0c-0.494,-0 -0.9,-0.407 -0.9,-0.9l-0,-3.9l-3.9,-0c-0.493,-0 -0.9,-0.406 -0.9,-0.9l0,-1.8c0,-0.494 0.407,-0.9 0.9,-0.9l3.9,0l-0,-3.9c-0,-0.493 0.406,-0.9 0.9,-0.9l1.8,0c0.493,0 0.9,0.407 0.9,0.9l-0,3.9l3.899,0c0.494,0 0.9,0.406 0.9,0.9l0,1.8Zm16.199,5.7c-1.645,-0 -3,-1.355 -3,-3c0,-1.646 1.355,-3 3,-3c1.646,-0 3,1.354 3,3c0,1.645 -1.354,3 -3,3Zm4.8,-7.2c-1.646,0 -3,-1.354 -3,-3c0,-1.645 1.354,-3 3,-3c1.646,0 3,1.355 3,3c-0,1.646 -1.354,3 -3,3Z" style="fill-rule:nonzero;"/><path id="Icon1" serif:id="Icon" d="M48.004,23.501l-24.003,-0c-0.001,-0 -0.001,-0 -0.002,-0c-6.582,-0 -11.999,5.416 -11.999,11.999c0,6.583 5.417,11.999 11.999,11.999c3.223,0 6.313,-1.298 8.569,-3.6l6.864,0c2.256,2.302 5.346,3.6 8.569,3.6c6.582,0 11.999,-5.416 11.999,-11.999c-0,-6.581 -5.414,-11.997 -11.996,-11.999Zm-17.404,12.899c0,0.494 -0.406,0.9 -0.9,0.9l-3.899,-0l-0,3.9c-0,0.493 -0.407,0.9 -0.9,0.9l-1.8,-0c-0.494,-0 -0.9,-0.407 -0.9,-0.9l-0,-3.9l-3.9,-0c-0.493,-0 -0.9,-0.406 -0.9,-0.9l0,-1.8c0,-0.494 0.407,-0.9 0.9,-0.9l3.9,0l-0,-3.9c-0,-0.493 0.406,-0.9 0.9,-0.9l1.8,0c0.493,0 0.9,0.407 0.9,0.9l-0,3.9l3.899,0c0.494,0 0.9,0.406 0.9,0.9l0,1.8Zm16.199,5.7c-1.645,-0 -3,-1.355 -3,-3c0,-1.646 1.355,-3 3,-3c1.646,-0 3,1.354 3,3c0,1.645 -1.354,3 -3,3Zm4.8,-7.2c-1.646,0 -3,-1.354 -3,-3c0,-1.645 1.354,-3 3,-3c1.646,0 3,1.355 3,3c-0,1.646 -1.354,3 -3,3Z" style="fill:#d8d8d8;fill-rule:nonzero;"/></svg>