<?xml version="1.0" encoding="UTF-8" standalone="no"?><!DOCTYPE svg PUBLIC "-//W3C//DTD SVG 1.1//EN" "http://www.w3.org/Graphics/SVG/1.1/DTD/svg11.dtd"><svg width="100%" height="100%" viewBox="0 0 72 72" version="1.1" xmlns="http://www.w3.org/2000/svg" xmlns:xlink="http://www.w3.org/1999/xlink" xml:space="preserve" xmlns:serif="http://www.serif.com/" style="fill-rule:evenodd;clip-rule:evenodd;stroke-linejoin:round;stroke-miterlimit:2;"><rect id="Game" x="0" y="0" width="72" height="72" style="fill:none;"/><path d="M49.008,23l-26.006,0c-0.001,0 -0.001,0 -0.002,0c-7.132,0 -13,5.868 -13,13c0,7.132 5.868,13 13,13c3.491,0 6.84,-1.407 9.284,-3.9l7.436,0c2.444,2.493 5.792,3.9 9.284,3.9c7.131,0 13,-5.868 13,-13c0,-7.13 -5.866,-12.998 -12.996,-13Zm-18.856,13.975c0,0.535 -0.44,0.975 -0.975,0.975l-4.225,0l0,4.225c0,0.535 -0.44,0.975 -0.975,0.975l-1.95,0c-0.535,0 -0.975,-0.44 -0.975,-0.975l0,-4.225l-4.225,0c-0.535,0 -0.975,-0.44 -0.975,-0.975l0,-1.95c0,-0.535 0.44,-0.975 0.975,-0.975l4.225,0l0,-4.225c0,-0.535 0.44,-0.975 0.975,-0.975l1.95,0c0.535,0 0.975,0.44 0.975,0.975l0,4.225l4.225,0c0.535,0 0.975,0.44 0.975,0.975l0,1.95Zm17.55,6.175c-1.783,0 -3.25,-1.467 -3.25,-3.25c0,-1.783 1.467,-3.25 3.25,-3.25c1.783,0 3.25,1.467 3.25,3.25c0,1.783 -1.467,3.25 -3.25,3.25Zm5.2,-7.8c-1.783,0 -3.25,-1.467 -3.25,-3.25c0,-1.783 1.467,-3.25 3.25,-3.25c1.783,0 3.25,1.467 3.25,3.25c0,1.783 -1.467,3.25 -3.25,3.25Z" style="fill:#d8d8d8;fill-rule:nonzero;"/></svg>