<?xml version="1.0" encoding="UTF-8" standalone="no"?><!DOCTYPE svg PUBLIC "-//W3C//DTD SVG 1.1//EN" "http://www.w3.org/Graphics/SVG/1.1/DTD/svg11.dtd"><svg width="100%" height="100%" viewBox="0 0 72 72" version="1.1" xmlns="http://www.w3.org/2000/svg" xmlns:xlink="http://www.w3.org/1999/xlink" xml:space="preserve" xmlns:serif="http://www.serif.com/" style="fill-rule:evenodd;clip-rule:evenodd;stroke-linejoin:round;stroke-miterlimit:2;"><rect id="Go_to_start_of_project" x="0" y="0" width="72" height="72" style="fill:none;"/><rect id="Background" x="0" y="-0" width="72" height="72" style="fill:#1f1f1f;"/><g id="Shadow"><path d="M24.966,50.013c-0,1.099 -0.892,1.991 -1.992,1.991l-3.983,0c-1.099,0 -1.991,-0.892 -1.991,-1.991l0,-25.89c0,-1.099 0.892,-1.991 1.991,-1.991l3.983,0c1.1,0 1.992,0.892 1.992,1.991l-0,25.89Z"/><path d="M30.495,36.216c-0.296,0.182 -0.476,0.505 -0.476,0.852c-0,0.347 0.18,0.67 0.476,0.852c4.445,2.736 18.343,11.288 22.981,14.142c0.308,0.19 0.696,0.198 1.012,0.021c0.316,-0.176 0.512,-0.51 0.512,-0.873c0,-5.591 0,-22.693 0,-28.284c0,-0.362 -0.196,-0.696 -0.512,-0.873c-0.316,-0.177 -0.704,-0.169 -1.012,0.021c-4.638,2.854 -18.536,11.407 -22.981,14.142Z"/></g><g id="Icon"><path d="M24.966,48.013c-0,1.099 -0.892,1.991 -1.992,1.991l-3.983,0c-1.099,0 -1.991,-0.892 -1.991,-1.991l0,-25.89c0,-1.099 0.892,-1.991 1.991,-1.991l3.983,0c1.1,0 1.992,0.892 1.992,1.991l-0,25.89Z" style="fill:#d8d8d8;"/><path d="M24.966,48.013c-0,1.099 -0.892,1.991 -1.992,1.991l-3.983,0c-1.099,0 -1.991,-0.892 -1.991,-1.991l0,-25.89c0,-1.099 0.892,-1.991 1.991,-1.991l3.983,0c1.1,0 1.992,0.892 1.992,1.991l-0,25.89Zm-1.5,-0c-0,0.271 -0.22,0.491 -0.492,0.491c0,0 -3.983,0 -3.983,0c-0.271,0 -0.491,-0.22 -0.491,-0.491c0,-0 0,-25.89 0,-25.89c0,-0.271 0.22,-0.491 0.491,-0.491c0,0 3.983,0 3.983,0c0.272,0 0.492,0.22 0.492,0.491l-0,25.89Z" style="fill:#ecf0fb;"/><path d="M30.495,34.216c-0.296,0.182 -0.476,0.505 -0.476,0.852c-0,0.347 0.18,0.67 0.476,0.852c4.445,2.736 18.343,11.288 22.981,14.142c0.308,0.19 0.696,0.198 1.012,0.021c0.316,-0.176 0.512,-0.51 0.512,-0.873c0,-5.591 0,-22.693 0,-28.284c0,-0.362 -0.196,-0.696 -0.512,-0.873c-0.316,-0.177 -0.704,-0.169 -1.012,0.021c-4.638,2.854 -18.536,11.407 -22.981,14.142Z" style="fill:#d8d8d8;"/><path d="M30.495,34.216c-0.296,0.182 -0.476,0.505 -0.476,0.852c-0,0.347 0.18,0.67 0.476,0.852c4.445,2.736 18.343,11.288 22.981,14.142c0.308,0.19 0.696,0.198 1.012,0.021c0.316,-0.176 0.512,-0.51 0.512,-0.873c0,-5.591 0,-22.693 0,-28.284c0,-0.362 -0.196,-0.696 -0.512,-0.873c-0.316,-0.177 -0.704,-0.169 -1.012,0.021c-4.638,2.854 -18.536,11.407 -22.981,14.142Zm1.478,0.852l21.527,13.247l-0,-26.494l-21.527,13.247Z" style="fill:#ecf0fb;"/></g></svg>