<?xml version="1.0" encoding="UTF-8" standalone="no"?><!DOCTYPE svg PUBLIC "-//W3C//DTD SVG 1.1//EN" "http://www.w3.org/Graphics/SVG/1.1/DTD/svg11.dtd"><svg width="100%" height="100%" viewBox="0 0 72 72" version="1.1" xmlns="http://www.w3.org/2000/svg" xmlns:xlink="http://www.w3.org/1999/xlink" xml:space="preserve" xmlns:serif="http://www.serif.com/" style="fill-rule:evenodd;clip-rule:evenodd;stroke-linejoin:round;stroke-miterlimit:2;"><rect id="MagicRouting" x="0" y="0" width="72" height="72" style="fill:none;"/><path d="M36,20.325l1.568,-3.135l3.135,-1.568l-3.135,-1.568l-1.568,-3.135l-1.568,3.135l-3.135,1.568l3.135,1.568l1.568,3.135Zm-14.108,6.27l2.612,-5.225l5.226,-2.613l-5.226,-2.613l-2.612,-5.225l-2.612,5.225l-5.226,2.613l5.226,2.613l2.612,5.225Zm31.352,9.406l-2.612,5.225l-5.226,2.613l5.226,2.613l2.612,5.225l2.612,-5.225l5.225,-2.613l-5.225,-2.613l-2.612,-5.225Zm7.837,-18.812l-6.27,-6.27c-0.611,-0.613 -1.414,-0.919 -2.216,-0.919c-0.802,0 -1.605,0.306 -2.217,0.919l-39.459,39.459c-1.225,1.225 -1.225,3.21 0,4.434l6.27,6.27c0.612,0.612 1.415,0.918 2.216,0.918c0.802,0 1.605,-0.306 2.217,-0.918l39.459,-39.46c1.225,-1.223 1.225,-3.209 0,-4.433Zm-16.378,13.781l-3.728,-3.728l11.62,-11.62l3.728,3.728l-11.62,11.62Z" style="fill:#d8d8d8;fill-rule:nonzero;"/></svg>