<?xml version="1.0" encoding="UTF-8" standalone="no"?><!DOCTYPE svg PUBLIC "-//W3C//DTD SVG 1.1//EN" "http://www.w3.org/Graphics/SVG/1.1/DTD/svg11.dtd"><svg width="100%" height="100%" viewBox="0 0 72 72" version="1.1" xmlns="http://www.w3.org/2000/svg" xmlns:xlink="http://www.w3.org/1999/xlink" xml:space="preserve" xmlns:serif="http://www.serif.com/" style="fill-rule:evenodd;clip-rule:evenodd;stroke-linejoin:round;stroke-miterlimit:2;"><rect id="MagicRouting" x="0" y="0" width="72" height="72" style="fill:none;"/><rect id="Background" x="0" y="0" width="72" height="72" style="fill:#1f1f1f;"/><path id="Shadow" d="M37.2,26.901l1.23,-2.46l2.46,-1.23l-2.46,-1.23l-1.23,-2.46l-1.23,2.46l-2.46,1.23l2.46,1.23l1.23,2.46Zm-11.07,4.92l2.05,-4.1l4.1,-2.05l-4.1,-2.05l-2.05,-4.1l-2.049,4.1l-4.1,2.05l4.1,2.05l2.049,4.1Zm24.6,7.38l-2.05,4.1l-4.1,2.05l4.1,2.05l2.05,4.1l2.049,-4.1l4.1,-2.05l-4.1,-2.05l-2.049,-4.1Zm6.149,-14.76l-4.919,-4.92c-0.48,-0.481 -1.11,-0.721 -1.739,-0.721c-0.63,0 -1.26,0.24 -1.74,0.721l-30.96,30.96c-0.961,0.961 -0.961,2.519 -0,3.479l4.92,4.92c0.48,0.48 1.11,0.72 1.738,0.72c0.63,0 1.26,-0.24 1.74,-0.72l30.96,-30.961c0.961,-0.96 0.961,-2.518 0,-3.478Zm-12.851,10.812l-2.924,-2.925l9.117,-9.117l2.924,2.925l-9.117,9.117Z" style="fill-rule:nonzero;"/><path id="Icon" d="M37.2,24.901l1.23,-2.46l2.46,-1.23l-2.46,-1.23l-1.23,-2.46l-1.23,2.46l-2.46,1.23l2.46,1.23l1.23,2.46Zm-11.07,4.92l2.05,-4.1l4.1,-2.05l-4.1,-2.05l-2.05,-4.1l-2.049,4.1l-4.1,2.05l4.1,2.05l2.049,4.1Zm24.6,7.38l-2.05,4.1l-4.1,2.05l4.1,2.05l2.05,4.1l2.049,-4.1l4.1,-2.05l-4.1,-2.05l-2.049,-4.1Zm6.149,-14.76l-4.919,-4.92c-0.48,-0.481 -1.11,-0.721 -1.739,-0.721c-0.63,0 -1.26,0.24 -1.74,0.721l-30.96,30.96c-0.961,0.961 -0.961,2.519 -0,3.479l4.92,4.92c0.48,0.48 1.11,0.72 1.738,0.72c0.63,0 1.26,-0.24 1.74,-0.72l30.96,-30.961c0.961,-0.96 0.961,-2.518 0,-3.478Zm-12.851,10.812l-2.924,-2.925l9.117,-9.117l2.924,2.925l-9.117,9.117Z" style="fill:#d8d8d8;fill-rule:nonzero;"/></svg>