<?xml version="1.0" encoding="UTF-8" standalone="no"?><!DOCTYPE svg PUBLIC "-//W3C//DTD SVG 1.1//EN" "http://www.w3.org/Graphics/SVG/1.1/DTD/svg11.dtd"><svg width="100%" height="100%" viewBox="0 0 72 72" version="1.1" xmlns="http://www.w3.org/2000/svg" xmlns:xlink="http://www.w3.org/1999/xlink" xml:space="preserve" xmlns:serif="http://www.serif.com/" style="fill-rule:evenodd;clip-rule:evenodd;stroke-linejoin:round;stroke-miterlimit:2;"><rect id="Marker_Dashboard" x="0" y="0" width="72" height="72" style="fill:none;"/><rect id="Background" x="0" y="-0" width="72" height="72" style="fill:#1f1f1f;"/><path id="Shadow" d="M51.6,57.4l-31.2,-0c-1.988,-0 -3.6,-1.842 -3.6,-4.114l0,-30.172c0,-2.272 1.612,-4.114 3.6,-4.114l31.2,-0c1.988,-0 3.6,1.842 3.6,4.114l0,30.172c0,2.272 -1.612,4.114 -3.6,4.114Zm-25.2,-28.8c-1.657,0 -2.4,0.506 -2.4,2.4c0,1.894 0.743,2.4 2.4,2.4c1.657,-0 2.4,-0.506 2.4,-2.4c0,-1.894 -0.743,-2.4 -2.4,-2.4Zm0,7.029c-1.657,-0 -2.4,0.506 -2.4,2.4c0,1.893 0.743,2.571 2.4,2.571c1.657,-0 2.4,-0.506 2.4,-2.4c0,-1.894 -0.743,-2.571 -2.4,-2.571Zm0,7.371c-1.657,-0 -2.4,0.506 -2.4,2.4c0,1.894 0.743,2.4 2.4,2.4c1.657,-0 2.4,-0.506 2.4,-2.4c0,-1.894 -0.743,-2.4 -2.4,-2.4Zm21.6,-10.629l0,-2.742c0,-0.568 -0.403,-1.029 -0.9,-1.029l-15,-0c-0.497,-0 -0.9,0.461 -0.9,1.029l0,2.742c0,0.568 0.403,1.029 0.9,1.029l15,-0c0.497,-0 0.9,-0.461 0.9,-1.029Zm0,7.029l0,-2.743c0,-0.568 -0.403,-1.028 -0.9,-1.028l-15,-0c-0.497,-0 -0.9,0.46 -0.9,1.028l0,2.743c0,0.568 0.403,1.029 0.9,1.029l15,-0c0.497,-0 0.9,-0.461 0.9,-1.029Zm0,7.371l0,-2.742c0,-0.568 -0.403,-1.029 -0.9,-1.029l-15,-0c-0.497,-0 -0.9,0.461 -0.9,1.029l0,2.742c0,0.568 0.403,1.029 0.9,1.029l15,-0c0.497,-0 0.9,-0.461 0.9,-1.029Z" style="fill-rule:nonzero;"/><path id="Icon" d="M51.6,55.2l-31.2,-0c-1.988,-0 -3.6,-1.842 -3.6,-4.114l0,-30.172c0,-2.272 1.612,-4.114 3.6,-4.114l31.2,0c1.988,0 3.6,1.842 3.6,4.114l0,30.172c0,2.272 -1.612,4.114 -3.6,4.114Zm-25.2,-28.8c-1.657,0 -2.4,0.506 -2.4,2.4c0,1.894 0.743,2.4 2.4,2.4c1.657,-0 2.4,-0.506 2.4,-2.4c0,-1.894 -0.743,-2.4 -2.4,-2.4Zm0,7.029c-1.657,-0 -2.4,0.506 -2.4,2.4c0,1.893 0.743,2.571 2.4,2.571c1.657,-0 2.4,-0.506 2.4,-2.4c0,-1.894 -0.743,-2.571 -2.4,-2.571Zm0,7.371c-1.657,-0 -2.4,0.506 -2.4,2.4c0,1.894 0.743,2.4 2.4,2.4c1.657,-0 2.4,-0.506 2.4,-2.4c0,-1.894 -0.743,-2.4 -2.4,-2.4Zm21.6,-10.629l0,-2.742c0,-0.568 -0.403,-1.029 -0.9,-1.029l-15,-0c-0.497,-0 -0.9,0.461 -0.9,1.029l0,2.742c0,0.568 0.403,1.029 0.9,1.029l15,-0c0.497,-0 0.9,-0.461 0.9,-1.029Zm0,7.029l0,-2.743c0,-0.568 -0.403,-1.028 -0.9,-1.028l-15,-0c-0.497,-0 -0.9,0.46 -0.9,1.028l0,2.743c0,0.568 0.403,1.029 0.9,1.029l15,-0c0.497,-0 0.9,-0.461 0.9,-1.029Zm0,7.371l0,-2.742c0,-0.568 -0.403,-1.029 -0.9,-1.029l-15,-0c-0.497,-0 -0.9,0.461 -0.9,1.029l0,2.742c0,0.568 0.403,1.029 0.9,1.029l15,-0c0.497,-0 0.9,-0.461 0.9,-1.029Z" style="fill:#d8d8d8;fill-rule:nonzero;"/></svg>