<?xml version="1.0" encoding="UTF-8" standalone="no"?><!DOCTYPE svg PUBLIC "-//W3C//DTD SVG 1.1//EN" "http://www.w3.org/Graphics/SVG/1.1/DTD/svg11.dtd"><svg width="100%" height="100%" viewBox="0 0 72 72" version="1.1" xmlns="http://www.w3.org/2000/svg" xmlns:xlink="http://www.w3.org/1999/xlink" xml:space="preserve" xmlns:serif="http://www.serif.com/" style="fill-rule:evenodd;clip-rule:evenodd;stroke-linejoin:round;stroke-miterlimit:2;"><rect id="Mouse_selection" x="0" y="0" width="72" height="72" style="fill:none;"/><rect id="Background" x="0" y="-0" width="72" height="72" style="fill:#1f1f1f;"/><path id="Shadow" d="M19.111,52l-2.111,0l0,-34l12.667,0l-10.556,10l0,24Zm35.889,-34l0,34l-2.111,0l-0,-24l-10.556,-10l12.667,0Zm-10.341,23.453l-5.392,0l2.838,6.493c0.198,0.45 -0.028,0.954 -0.48,1.145l-2.499,1.023c-0.466,0.191 -0.989,-0.027 -1.186,-0.463l-2.697,-6.166l-4.405,4.256c-0.587,0.567 -1.171,0.13 -1.171,-0.614l-0,-20.513c-0,-0.783 0.644,-1.165 1.171,-0.614l14.457,13.966c0.583,0.534 0.153,1.487 -0.636,1.487Z" style="fill-rule:nonzero;"/><path id="Icon" d="M19.111,51l-2.111,0l0,-34l12.667,0l-10.556,10l0,24Zm35.889,-34l0,34l-2.111,0l-0,-24l-10.556,-10l12.667,0Zm-10.341,23.453l-5.392,0l2.838,6.493c0.198,0.45 -0.028,0.954 -0.48,1.145l-2.499,1.023c-0.466,0.191 -0.989,-0.027 -1.186,-0.463l-2.697,-6.166l-4.405,4.256c-0.587,0.567 -1.171,0.13 -1.171,-0.614l-0,-20.513c-0,-0.783 0.644,-1.165 1.171,-0.614l14.457,13.966c0.583,0.534 0.153,1.487 -0.636,1.487Z" style="fill:#d8d8d8;fill-rule:nonzero;"/></svg>