<?xml version="1.0" encoding="UTF-8" standalone="no"?><!DOCTYPE svg PUBLIC "-//W3C//DTD SVG 1.1//EN" "http://www.w3.org/Graphics/SVG/1.1/DTD/svg11.dtd"><svg width="100%" height="100%" viewBox="0 0 72 72" version="1.1" xmlns="http://www.w3.org/2000/svg" xmlns:xlink="http://www.w3.org/1999/xlink" xml:space="preserve" xmlns:serif="http://www.serif.com/" style="fill-rule:evenodd;clip-rule:evenodd;stroke-linejoin:round;stroke-miterlimit:2;"><rect id="Mute_envelopes" x="-0" y="0" width="72" height="72" style="fill:none;"/><rect id="Background" x="-0" y="-0" width="72" height="72" style="fill:#1f1f1f;"/><path id="Shadow" d="M52.957,46.067l-7.914,-7.934l-7.913,7.934l7.913,7.933l7.914,-7.933Zm2.26,-1.134l6.783,0l-0,2.267l-6.783,-0l0,-2.267Zm-14.695,-5.666l-6.783,-6.8l-2.261,2.266l6.783,6.8l2.261,-2.266Zm-5.652,-11.334l-7.913,-7.933l-7.914,7.933l7.914,7.934l7.913,-7.934Zm-24.87,-1.133l6.783,0l-0,2.267c-0,-0 -6.783,-0 -6.783,-0c-0,-0 -0,-2.267 -0,-2.267Z"/><path id="Icon" d="M52.957,45.067l-7.914,-7.934l-7.913,7.934l7.913,7.933l7.914,-7.933Zm2.26,-1.134l6.783,0l-0,2.267l-6.783,-0l0,-2.267Zm-14.695,-5.666l-6.783,-6.8l-2.261,2.266l6.783,6.8l2.261,-2.266Zm-5.652,-11.334l-7.913,-7.933l-7.914,7.933l7.914,7.934l7.913,-7.934Zm-24.87,-1.133l6.783,0l-0,2.267c-0,-0 -6.783,-0 -6.783,-0c-0,-0 -0,-2.267 -0,-2.267Z" style="fill:#d8d8d8;"/></svg>