<?xml version="1.0" encoding="UTF-8" standalone="no"?><!DOCTYPE svg PUBLIC "-//W3C//DTD SVG 1.1//EN" "http://www.w3.org/Graphics/SVG/1.1/DTD/svg11.dtd"><svg width="100%" height="100%" viewBox="0 0 72 72" version="1.1" xmlns="http://www.w3.org/2000/svg" xmlns:xlink="http://www.w3.org/1999/xlink" xml:space="preserve" xmlns:serif="http://www.serif.com/" style="fill-rule:evenodd;clip-rule:evenodd;stroke-linejoin:round;stroke-miterlimit:2;"><rect id="muted" x="0" y="0" width="72" height="72" style="fill:none;"/><path d="M67.872,56.525l-16.026,-12.386c1.278,-2.439 2.029,-5.193 2.029,-8.139l0,-4.875c0,-0.898 -0.727,-1.625 -1.625,-1.625l-1.625,0c-0.898,0 -1.625,0.727 -1.625,1.625l0,4.875c0,1.82 -0.402,3.534 -1.089,5.098l-2.696,-2.084c0.314,-0.954 0.536,-1.952 0.536,-3.013l0,-16.251c0,-5.385 -4.365,-9.75 -9.75,-9.75c-5.385,0 -9.75,4.365 -9.75,9.75l0,4.607l-18.133,-14.015c-0.709,-0.55 -1.73,-0.423 -2.281,0.286l-1.995,2.566c-0.55,0.708 -0.423,1.729 0.286,2.28l59.755,46.183c0.709,0.552 1.729,0.424 2.281,-0.285l1.994,-2.566c0.55,-0.708 0.423,-1.729 -0.286,-2.281Zm-23.747,0.6l-5.688,0l0,-3.43c1.185,-0.163 2.321,-0.461 3.42,-0.844l-5.089,-3.934c-0.682,0.041 -1.362,0.089 -2.067,0.021c-5.672,-0.554 -10.028,-4.939 -11.292,-10.344l-5.284,-4.086l0,0.696c0,9.104 6.497,17.219 15.437,18.452l0,3.469l-5.687,0c-0.898,0 -1.625,0.727 -1.625,1.625l0,1.625c0,0.897 0.727,1.625 1.625,1.625l16.25,0c0.898,0 1.625,-0.728 1.625,-1.625l0,-1.625c0,-0.898 -0.727,-1.625 -1.625,-1.625Z" style="fill:#d8d8d8;fill-rule:nonzero;"/></svg>