<?xml version="1.0" encoding="UTF-8" standalone="no"?><!DOCTYPE svg PUBLIC "-//W3C//DTD SVG 1.1//EN" "http://www.w3.org/Graphics/SVG/1.1/DTD/svg11.dtd"><svg width="100%" height="100%" viewBox="0 0 72 73" version="1.1" xmlns="http://www.w3.org/2000/svg" xmlns:xlink="http://www.w3.org/1999/xlink" xml:space="preserve" xmlns:serif="http://www.serif.com/" style="fill-rule:evenodd;clip-rule:evenodd;stroke-linejoin:round;stroke-miterlimit:2;"><rect id="muted" x="0" y="0" width="72" height="72" style="fill:none;"/><rect id="Background" x="-0" y="0" width="72" height="72" style="fill:#1f1f1f;"/><path id="Shadow" d="M20.784,31.65l3.781,2.97l-0,2.38c-0,5.741 4.223,10.389 10.272,10.947c0.085,0.008 0.171,0.015 0.257,0.021c1.937,0.139 3.768,-0.173 5.399,-0.837l3.741,2.938c-1.783,1.014 -3.794,1.704 -5.947,1.984l0,2.315l6.861,0c0.804,0 0,0.616 0,1.375l0,1.882c0,0.76 0.804,1.375 0,1.375l-18.296,0c-0.804,0 -0,-0.615 -0,-1.375l-0,-1.882c-0,-0.759 -0.804,-1.375 -0,-1.375l6.861,0l-0,-2.315c-8.007,-1.044 -13.722,-8.023 -13.722,-15.727l-0,-3.451c-0,-0.534 0.322,-0.997 0.793,-1.225Zm6.068,-5.223l-0,-2.164c-0,-4.556 4.325,-9.263 9.148,-9.263c4.823,0 9.148,4.707 9.148,9.263l-9.148,0l-0,2.316l9.148,-0l0,2.316l-9.148,-0l-0,2.316l9.148,-0l0,2.315l-9.148,0l-0,0.086l2.839,2.23l6.309,0c0,1.395 -0.405,2.803 -1.106,4.087l2.296,1.803c0.705,-1.434 1.097,-3.039 1.097,-4.732l0,-4.125c0,-0.76 0.651,-1.375 1.455,-1.375l1.664,0c0.804,0 1.455,0.615 1.455,1.375l0,4.125c0,2.737 -0.76,5.314 -2.094,7.541l11.577,9.093c0.685,0.539 0.81,1.54 0.278,2.234l-1.927,2.516c-0.532,0.694 -1.52,0.821 -2.206,0.282l-47.129,-37.016c-0.685,-0.539 -0.81,-1.54 -0.278,-2.234l1.927,-2.516c0.532,-0.694 1.52,-0.821 2.206,-0.282l12.489,9.809Zm-0,9.989l10.824,8.502c-0.548,0.122 -1.108,0.187 -1.676,0.187c-4.823,0 -9.148,-3.549 -9.148,-8.105l-0,-0.584Z" style="fill-rule:nonzero;"/><path id="Icon" d="M20.784,30.65l3.781,2.97l-0,2.38c-0,5.741 4.223,10.389 10.272,10.947c0.085,0.008 0.171,0.015 0.257,0.021c1.937,0.139 3.768,-0.173 5.399,-0.837l3.741,2.938c-1.783,1.014 -3.794,1.704 -5.947,1.984l0,2.315l6.861,0c0.804,0 0,0.616 0,1.375l0,1.882c0,0.76 0.804,1.375 0,1.375l-18.296,0c-0.804,0 -0,-0.615 -0,-1.375l-0,-1.882c-0,-0.759 -0.804,-1.375 -0,-1.375l6.861,0l-0,-2.315c-8.007,-1.044 -13.722,-8.023 -13.722,-15.727l-0,-3.451c-0,-0.534 0.322,-0.997 0.793,-1.225Zm6.068,-5.223l-0,-2.164c-0,-4.556 4.325,-9.263 9.148,-9.263c4.823,0 9.148,4.707 9.148,9.263l-9.148,0l-0,2.316l9.148,-0l0,2.316l-9.148,-0l-0,2.316l9.148,-0l0,2.315l-9.148,0l-0,0.086l2.839,2.23l6.309,0c0,1.395 -0.405,2.803 -1.106,4.087l2.296,1.803c0.705,-1.434 1.097,-3.039 1.097,-4.732l0,-4.125c0,-0.76 0.651,-1.375 1.455,-1.375l1.664,0c0.804,0 1.455,0.615 1.455,1.375l0,4.125c0,2.737 -0.76,5.314 -2.094,7.541l11.577,9.093c0.685,0.539 0.81,1.54 0.278,2.234l-1.927,2.516c-0.532,0.694 -1.52,0.821 -2.206,0.282l-47.129,-37.016c-0.685,-0.539 -0.81,-1.54 -0.278,-2.234l1.927,-2.516c0.532,-0.694 1.52,-0.821 2.206,-0.282l12.489,9.809Zm-0,9.989l10.824,8.502c-0.548,0.122 -1.108,0.187 -1.676,0.187c-4.823,0 -9.148,-3.549 -9.148,-8.105l-0,-0.584Z" style="fill:#d8d8d8;fill-rule:nonzero;"/></svg>