<?xml version="1.0" encoding="UTF-8" standalone="no"?><!DOCTYPE svg PUBLIC "-//W3C//DTD SVG 1.1//EN" "http://www.w3.org/Graphics/SVG/1.1/DTD/svg11.dtd"><svg width="100%" height="100%" viewBox="0 0 72 72" version="1.1" xmlns="http://www.w3.org/2000/svg" xmlns:xlink="http://www.w3.org/1999/xlink" xml:space="preserve" xmlns:serif="http://www.serif.com/" style="fill-rule:evenodd;clip-rule:evenodd;stroke-linejoin:round;stroke-miterlimit:2;"><rect id="next_marker" x="-0" y="0" width="72" height="72" style="fill:none;"/><rect id="Background" x="-0" y="0" width="72" height="72" style="fill:#1f1f1f;"/><path id="Shadow" d="M22,18.828c0,-1.562 1.266,-2.828 2.828,-2.828c5.372,0 16.998,0 22.359,0c0.746,0 1.462,0.296 1.989,0.824c0.528,0.527 0.824,1.243 0.824,1.989c0,9.109 0,37.214 0,37.214c0,-0 -8.762,-6.475 -12.503,-9.24c-0.985,-0.728 -2.331,-0.72 -3.308,0.019c-3.668,2.774 -12.189,9.221 -12.189,9.221l0,-37.199Zm19.969,10.992l-8.429,-8.503c-0.583,-0.588 -1.525,-0.588 -2.101,-0l-1.401,1.413c-0.582,0.588 -0.582,1.538 0,2.119l5.969,6.034l-5.975,6.027c-0.583,0.588 -0.583,1.538 -0,2.119l1.401,1.42c0.582,0.587 1.524,0.587 2.101,-0l8.429,-8.503c0.588,-0.588 0.588,-1.538 0.006,-2.126Z"/><path id="Icon" d="M22,17.828c0,-1.562 1.266,-2.828 2.828,-2.828c5.372,0 16.998,0 22.359,0c0.746,0 1.462,0.296 1.989,0.824c0.528,0.527 0.824,1.243 0.824,1.989c0,9.109 0,37.214 0,37.214c0,-0 -8.762,-6.475 -12.503,-9.24c-0.985,-0.728 -2.331,-0.72 -3.308,0.019c-3.668,2.774 -12.189,9.221 -12.189,9.221l0,-37.199Zm19.969,10.992l-8.429,-8.503c-0.583,-0.588 -1.525,-0.588 -2.101,-0l-1.401,1.413c-0.582,0.588 -0.582,1.538 0,2.119l5.969,6.034l-5.975,6.027c-0.583,0.588 -0.583,1.538 -0,2.119l1.401,1.42c0.582,0.587 1.524,0.587 2.101,-0l8.429,-8.503c0.588,-0.588 0.588,-1.538 0.006,-2.126Z" style="fill:#d8d8d8;"/></svg>