<?xml version="1.0" encoding="UTF-8" standalone="no"?><!DOCTYPE svg PUBLIC "-//W3C//DTD SVG 1.1//EN" "http://www.w3.org/Graphics/SVG/1.1/DTD/svg11.dtd"><svg width="100%" height="100%" viewBox="0 0 72 72" version="1.1" xmlns="http://www.w3.org/2000/svg" xmlns:xlink="http://www.w3.org/1999/xlink" xml:space="preserve" xmlns:serif="http://www.serif.com/" style="fill-rule:evenodd;clip-rule:evenodd;stroke-linejoin:round;stroke-miterlimit:2;"><rect id="OnAir" x="0" y="-0" width="72" height="72" style="fill:none;"/><rect id="Background" x="-0" y="-0" width="72" height="72" style="fill:#1f1f1f;"/><path id="Icon" d="M40.056,52.947c0.607,0.599 0.508,1.648 -0.246,2.051c-6.375,3.429 -14.497,2.454 -19.879,-2.929c-5.382,-5.382 -6.359,-13.496 -2.928,-19.879c0.401,-0.746 1.451,-0.845 2.051,-0.246l9.582,9.582l2.247,-2.247c-0.056,-0.214 -0.131,-0.41 -0.131,-0.641c0,-1.44 1.185,-2.625 2.626,-2.625c1.44,-0 2.625,1.185 2.625,2.625c-0,1.44 -1.185,2.625 -2.625,2.625c-0.23,0 -0.427,-0.073 -0.64,-0.13l-2.248,2.248l9.566,9.566Zm16.942,-13.086c0.001,0.025 0.002,0.049 0.002,0.074c-0,0.722 -0.592,1.317 -1.315,1.321l-2.634,-0c-0.687,-0.002 -1.262,-0.545 -1.304,-1.231c-0.615,-10.624 -9.147,-19.239 -19.764,-19.813c-0.689,-0.037 -1.234,-0.616 -1.231,-1.305l0,-2.592c0.003,-0.722 0.598,-1.315 1.321,-1.315c0.024,-0 0.049,0.001 0.074,0.002c13.389,0.705 24.154,11.469 24.851,24.859Zm-7.876,-0.024c0.002,0.029 0.003,0.059 0.003,0.089c-0,0.728 -0.597,1.327 -1.325,1.33l-2.642,-0c-0.677,-0.005 -1.246,-0.532 -1.303,-1.207c-0.567,-6.317 -5.588,-11.394 -11.889,-11.912c-0.68,-0.049 -1.213,-0.622 -1.214,-1.304l0,-2.634c0,-0.001 0,-0.001 0,-0.001c0,-0.726 0.598,-1.323 1.324,-1.323c0.032,-0 0.064,0.001 0.095,0.003c9.034,0.698 16.261,7.925 16.951,16.959Z" style="fill:#d8d8d8;fill-rule:nonzero;"/></svg>