<?xml version="1.0" encoding="UTF-8" standalone="no"?><!DOCTYPE svg PUBLIC "-//W3C//DTD SVG 1.1//EN" "http://www.w3.org/Graphics/SVG/1.1/DTD/svg11.dtd"><svg width="100%" height="100%" viewBox="0 0 72 72" version="1.1" xmlns="http://www.w3.org/2000/svg" xmlns:xlink="http://www.w3.org/1999/xlink" xml:space="preserve" xmlns:serif="http://www.serif.com/" style="fill-rule:evenodd;clip-rule:evenodd;stroke-linejoin:round;stroke-miterlimit:2;"><rect id="OnAir" x="0" y="0" width="72" height="72" style="fill:none;"/><path d="M26.455,43.1l3.316,-3.317c-0.042,-0.205 -0.064,-0.418 -0.064,-0.636c0,-1.737 1.41,-3.147 3.146,-3.147c1.737,0 3.147,1.41 3.147,3.147c0,1.736 -1.41,3.146 -3.147,3.146c-0.218,0 -0.431,-0.022 -0.636,-0.064l-3.317,3.316c0,0 7.705,7.705 11.359,11.358c0.46,0.459 0.668,1.113 0.558,1.753c-0.11,0.64 -0.523,1.187 -1.109,1.467c-2.666,1.198 -5.62,1.877 -8.731,1.877c-11.577,0 -20.977,-9.4 -20.977,-20.977c0,-3.111 0.679,-6.065 1.896,-8.721c0.277,-0.58 0.818,-0.99 1.452,-1.098c0.633,-0.109 1.28,0.097 1.734,0.551c3.668,3.64 11.373,11.345 11.373,11.345Zm31.177,-0.762c-1.056,0 -1.93,-0.822 -1.995,-1.877c-0.908,-12.728 -11.088,-22.908 -23.816,-23.826c-1.049,-0.064 -1.867,-0.934 -1.867,-1.985c-0.01,-0.732 -0.01,-1.568 -0.01,-2.312c0,-0.549 0.226,-1.075 0.625,-1.453c0.399,-0.378 0.937,-0.575 1.486,-0.545c16.012,1.053 28.834,13.875 29.877,29.888c0.03,0.546 -0.166,1.081 -0.542,1.478c-0.376,0.398 -0.899,0.623 -1.446,0.623c-0.744,0.009 -1.58,0.009 -2.312,0.009Zm-5.356,-2.167c0.047,0.553 -0.14,1.102 -0.516,1.511c-0.376,0.409 -0.907,0.642 -1.462,0.642c-0.761,0.014 -1.617,0.014 -2.358,0.014c-1.028,0 -1.888,-0.779 -1.99,-1.801c-0.815,-7.461 -6.744,-13.39 -14.203,-14.221c-1.014,-0.101 -1.786,-0.955 -1.786,-1.974c-0.017,-0.742 -0.017,-1.597 -0.017,-2.359c0,-0.56 0.234,-1.094 0.646,-1.473c0.413,-0.379 0.965,-0.568 1.523,-0.52c10.653,1.038 19.14,9.526 20.163,20.181Z" style="fill:#d8d8d8;"/></svg>