<?xml version="1.0" encoding="UTF-8" standalone="no"?><!DOCTYPE svg PUBLIC "-//W3C//DTD SVG 1.1//EN" "http://www.w3.org/Graphics/SVG/1.1/DTD/svg11.dtd"><svg width="100%" height="100%" viewBox="0 0 72 72" version="1.1" xmlns="http://www.w3.org/2000/svg" xmlns:xlink="http://www.w3.org/1999/xlink" xml:space="preserve" xmlns:serif="http://www.serif.com/" style="fill-rule:evenodd;clip-rule:evenodd;stroke-linejoin:round;stroke-miterlimit:2;"><rect id="Pause2" x="0" y="0" width="72" height="72" style="fill:none;"/><rect id="Background" x="0" y="-0" width="72" height="72" style="fill:#b4702d;"/><g id="Shadow"><path d="M32,25c0,-1.104 -0.896,-2 -2,-2l-4,0c-1.104,0 -2,0.896 -2,2l0,26c0,1.104 0.896,2 2,2l4,0c1.104,0 2,-0.896 2,-2l0,-26Z"/><path d="M48,25c0,-1.104 -0.896,-2 -2,-2l-4,0c-1.104,0 -2,0.896 -2,2l0,26c0,1.104 0.896,2 2,2l4,0c1.104,0 2,-0.896 2,-2l0,-26Z"/></g><g><path d="M32,23c0,-1.104 -0.896,-2 -2,-2l-4,0c-1.104,0 -2,0.896 -2,2l0,26c0,1.104 0.896,2 2,2l4,0c1.104,0 2,-0.896 2,-2l0,-26Z" style="fill:#d8d8d8;"/><path d="M48,23c0,-1.104 -0.896,-2 -2,-2l-4,0c-1.104,0 -2,0.896 -2,2l0,26c0,1.104 0.896,2 2,2l4,0c1.104,0 2,-0.896 2,-2l0,-26Z" style="fill:#d8d8d8;"/></g></svg>