<?xml version="1.0" encoding="UTF-8" standalone="no"?><!DOCTYPE svg PUBLIC "-//W3C//DTD SVG 1.1//EN" "http://www.w3.org/Graphics/SVG/1.1/DTD/svg11.dtd"><svg width="100%" height="100%" viewBox="0 0 72 72" version="1.1" xmlns="http://www.w3.org/2000/svg" xmlns:xlink="http://www.w3.org/1999/xlink" xml:space="preserve" xmlns:serif="http://www.serif.com/" style="fill-rule:evenodd;clip-rule:evenodd;stroke-linejoin:round;stroke-miterlimit:2;"><rect id="Preshow" x="0" y="0" width="72" height="72" style="fill:none;"/><rect id="Background" x="0" y="0" width="72" height="72" style="fill:#1f1f1f;"/><path id="Shadow" d="M49.679,16.596l-23.998,7.973c-0.997,0.353 -1.68,1.399 -1.681,2.575l0,22.058c-0.786,-0.215 -1.591,-0.326 -2.4,-0.331c-3.975,-0 -7.2,2.418 -7.2,5.4c0,2.982 3.225,5.4 7.2,5.4c3.975,0 7.2,-2.418 7.2,-5.4l0,-19.718l19.2,-6.328l0,15.577c-0.786,-0.215 -1.591,-0.327 -2.4,-0.332c-3.975,0 -7.2,2.419 -7.2,5.401c0,2.982 3.225,5.4 7.2,5.4c3.975,0 7.2,-2.417 7.2,-5.4l0,-29.702c-0.001,-1.48 -1.084,-2.698 -2.4,-2.698c-0.245,0 -0.488,0.043 -0.721,0.125Z" style="fill-rule:nonzero;"/><path id="Icon" d="M49.679,14.596l-23.998,7.973c-0.997,0.353 -1.68,1.399 -1.681,2.575l0,22.058c-0.786,-0.215 -1.591,-0.326 -2.4,-0.331c-3.975,-0 -7.2,2.418 -7.2,5.4c0,2.982 3.225,5.4 7.2,5.4c3.975,0 7.2,-2.418 7.2,-5.4l0,-19.718l19.2,-6.328l0,15.577c-0.786,-0.215 -1.591,-0.327 -2.4,-0.332c-3.975,0 -7.2,2.419 -7.2,5.401c0,2.982 3.225,5.4 7.2,5.4c3.975,0 7.2,-2.417 7.2,-5.4l0,-29.702c-0.001,-1.48 -1.084,-2.698 -2.4,-2.698c-0.245,0 -0.488,0.043 -0.721,0.125Z" style="fill:#d8d8d8;fill-rule:nonzero;"/></svg>