<?xml version="1.0" encoding="UTF-8" standalone="no"?><!DOCTYPE svg PUBLIC "-//W3C//DTD SVG 1.1//EN" "http://www.w3.org/Graphics/SVG/1.1/DTD/svg11.dtd"><svg width="100%" height="100%" viewBox="0 0 72 72" version="1.1" xmlns="http://www.w3.org/2000/svg" xmlns:xlink="http://www.w3.org/1999/xlink" xml:space="preserve" xmlns:serif="http://www.serif.com/" style="fill-rule:evenodd;clip-rule:evenodd;stroke-linejoin:round;stroke-miterlimit:2;"><rect id="Preshow" x="0" y="0" width="72" height="72" style="fill:none;"/><path d="M57.773,10.15l-32.497,9.598c-1.35,0.424 -2.275,1.683 -2.276,3.098l0,26.551c-1.064,-0.258 -2.155,-0.392 -3.25,-0.398c-5.383,0 -9.75,2.911 -9.75,6.501c0,3.589 4.367,6.5 9.75,6.5c5.383,0 9.75,-2.911 9.75,-6.5l0,-23.735l26,-7.618l0,18.751c-1.064,-0.259 -2.155,-0.393 -3.25,-0.399c-5.383,0 -9.75,2.911 -9.75,6.5c0,3.59 4.367,6.501 9.75,6.501c5.383,0 9.75,-2.91 9.75,-6.501l0,-35.752c-0.002,-1.782 -1.468,-3.247 -3.25,-3.247c-0.331,0 -0.661,0.051 -0.977,0.15Z" style="fill:#d8d8d8;fill-rule:nonzero;"/></svg>