<?xml version="1.0" encoding="UTF-8" standalone="no"?><!DOCTYPE svg PUBLIC "-//W3C//DTD SVG 1.1//EN" "http://www.w3.org/Graphics/SVG/1.1/DTD/svg11.dtd"><svg width="100%" height="100%" viewBox="0 0 72 72" version="1.1" xmlns="http://www.w3.org/2000/svg" xmlns:xlink="http://www.w3.org/1999/xlink" xml:space="preserve" xmlns:serif="http://www.serif.com/" style="fill-rule:evenodd;clip-rule:evenodd;stroke-linejoin:round;stroke-miterlimit:2;"><rect id="prev_marker" x="0" y="0" width="72" height="72" style="fill:none;"/><path d="M54.348,11.174c0,-0.311 -0.124,-0.61 -0.344,-0.83c-0.22,-0.22 -0.519,-0.344 -0.831,-0.344c-5.517,0 -28.829,0 -34.346,0c-0.312,0 -0.611,0.124 -0.831,0.344c-0.22,0.22 -0.344,0.519 -0.344,0.83c0,7.715 0,50.826 0,50.826c0,0 14.475,-10.604 17.861,-13.084c0.417,-0.305 0.985,-0.302 1.398,0.008c3.327,2.495 17.437,13.076 17.437,13.076l0,-50.826Zm-26.17,16.78l11.046,-11.047c0.764,-0.763 1.998,-0.763 2.754,0l1.835,1.836c0.764,0.764 0.764,1.998 0,2.754l-7.822,7.838l7.83,7.83c0.764,0.763 0.764,1.998 0,2.753l-1.835,1.844c-0.764,0.764 -1.998,0.764 -2.754,0l-11.046,-11.046c-0.772,-0.764 -0.772,-1.998 -0.008,-2.762Z" style="fill:#d8d8d8;"/></svg>