<?xml version="1.0" encoding="UTF-8" standalone="no"?><!DOCTYPE svg PUBLIC "-//W3C//DTD SVG 1.1//EN" "http://www.w3.org/Graphics/SVG/1.1/DTD/svg11.dtd"><svg width="100%" height="100%" viewBox="0 0 72 72" version="1.1" xmlns="http://www.w3.org/2000/svg" xmlns:xlink="http://www.w3.org/1999/xlink" xml:space="preserve" xmlns:serif="http://www.serif.com/" style="fill-rule:evenodd;clip-rule:evenodd;stroke-linejoin:round;stroke-miterlimit:2;"><rect id="Record2" x="0" y="0" width="72" height="72" style="fill:none;"/><rect x="22.302" y="19.983" width="30.75" height="32.034" style="fill:#ff3d42;"/><path d="M36,10c-14.359,0 -26,11.641 -26,26c0,14.359 11.641,26 26,26c14.359,0 26,-11.641 26,-26c0,-14.359 -11.641,-26 -26,-26Zm8.387,26c0,4.625 -3.762,8.387 -8.387,8.387c-4.625,0 -8.387,-3.762 -8.387,-8.387c0,-4.625 3.762,-8.387 8.387,-8.387c4.625,0 8.387,3.762 8.387,8.387Z" style="fill:#d8d8d8;fill-rule:nonzero;"/></svg>