<?xml version="1.0" encoding="UTF-8" standalone="no"?><!DOCTYPE svg PUBLIC "-//W3C//DTD SVG 1.1//EN" "http://www.w3.org/Graphics/SVG/1.1/DTD/svg11.dtd"><svg width="100%" height="100%" viewBox="0 0 72 72" version="1.1" xmlns="http://www.w3.org/2000/svg" xmlns:xlink="http://www.w3.org/1999/xlink" xml:space="preserve" xmlns:serif="http://www.serif.com/" style="fill-rule:evenodd;clip-rule:evenodd;stroke-linejoin:round;stroke-miterlimit:2;"><rect id="RecordView" x="0" y="-0" width="72" height="72" style="fill:none;"/><rect id="Background" x="-0" y="-0" width="72" height="72" style="fill:#1f1f1f;"/><path id="Shadow" d="M19.169,33.059c-0.162,0.506 -0.247,2.581 -0.242,2.412c0.024,-0.819 0.106,-1.625 0.242,-2.412c0.678,-2.118 2.663,-3.651 5.006,-3.651l1.314,0c1.451,0 2.628,1.177 2.628,2.628l-0,9.197c-0,1.451 -1.177,2.628 -2.628,2.628l-1.314,0c-2.903,0 -5.256,-2.353 -5.256,-5.255l0,-1.314c0,0.726 -0.588,1.314 -1.313,1.314l-1.314,-0c-0.726,-0 -1.314,-0.588 -1.314,-1.314l-0,-1.314c0.376,-11.264 9.294,-21.022 21.022,-21.022c11.728,-0 20.646,9.758 21.022,21.022l0,2.628l-2.102,-0c0.022,1.576 -0.009,3.254 0,5.781c0.022,6.306 -6.307,10.511 -12.613,10.511l-2.103,-0c0,1.032 -1.069,2.102 -2.102,2.102l-4.204,-0c-1.033,-0 -2.102,-1.07 -2.102,-2.102l-0,-2.102c-0,-1.033 1.069,-2.103 2.102,-2.103l4.204,0c1.033,0 2.102,1.07 2.102,2.103l2.103,-0c4.204,-0 10.524,-2.103 10.511,-8.409c-0,-0 0.261,-1.877 0.258,-5.556c0.003,-0.075 -0.053,-0.15 -0.053,-0.225c0,-0 -0.03,-5.041 -0.192,-5.547c-1.389,-8.033 -8.408,-14.162 -16.831,-14.162c-8.423,0 -15.442,6.129 -16.831,14.162Zm28.656,10.802l-1.314,0c-1.451,0 -2.628,-1.177 -2.628,-2.628l0,-9.197c0,-1.451 1.177,-2.628 2.628,-2.628l1.314,0c2.343,0 4.328,1.533 5.006,3.651c0.164,0.949 0.24,2.919 0.24,2.919c0.002,0.061 -0.002,0.49 -0,2.102c-0.118,2.798 -2.419,5.781 -5.246,5.781Z" style="fill-rule:nonzero;"/><path id="Icon" d="M19.169,32.103c-0.162,0.506 -0.247,2.581 -0.242,2.413c0.024,-0.82 0.106,-1.626 0.242,-2.413c0.678,-2.117 2.663,-3.65 5.006,-3.65l1.314,-0c1.451,-0 2.628,1.177 2.628,2.628l-0,9.197c-0,1.451 -1.177,2.628 -2.628,2.628l-1.314,-0c-2.903,-0 -5.256,-2.353 -5.256,-5.256l0,-1.314c0,0.726 -0.588,1.314 -1.313,1.314l-1.314,-0c-0.726,-0 -1.314,-0.588 -1.314,-1.314l-0,-1.314c0.376,-11.264 9.294,-21.022 21.022,-21.022c11.728,-0 20.646,9.758 21.022,21.022l0,2.628l-2.102,-0c0.022,1.577 -0.009,3.255 0,5.781c0.022,6.307 -6.307,10.511 -12.613,10.511l-2.103,0c0,1.033 -1.069,2.102 -2.102,2.102l-4.204,0c-1.033,0 -2.102,-1.069 -2.102,-2.102l-0,-2.102c-0,-1.033 1.069,-2.102 2.102,-2.102l4.204,-0c1.033,-0 2.102,1.069 2.102,2.102l2.103,-0c4.204,-0 10.524,-2.102 10.511,-8.409c-0,0 0.261,-1.877 0.258,-5.555c0.003,-0.075 -0.053,-0.15 -0.053,-0.226c0,-0 -0.03,-5.041 -0.192,-5.547c-1.389,-8.032 -8.408,-14.161 -16.831,-14.161c-8.423,-0 -15.442,6.129 -16.831,14.161Zm28.656,10.803l-1.314,-0c-1.451,-0 -2.628,-1.177 -2.628,-2.628l0,-9.197c0,-1.451 1.177,-2.628 2.628,-2.628l1.314,-0c2.343,-0 4.328,1.533 5.006,3.65c0.164,0.949 0.24,2.919 0.24,2.919c0.002,0.062 -0.002,0.491 -0,2.102c-0.118,2.799 -2.419,5.782 -5.246,5.782Z" style="fill:#d8d8d8;fill-rule:nonzero;"/></svg>