<?xml version="1.0" encoding="UTF-8" standalone="no"?><!DOCTYPE svg PUBLIC "-//W3C//DTD SVG 1.1//EN" "http://www.w3.org/Graphics/SVG/1.1/DTD/svg11.dtd"><svg width="100%" height="100%" viewBox="0 0 72 72" version="1.1" xmlns="http://www.w3.org/2000/svg" xmlns:xlink="http://www.w3.org/1999/xlink" xml:space="preserve" xmlns:serif="http://www.serif.com/" style="fill-rule:evenodd;clip-rule:evenodd;stroke-linejoin:round;stroke-miterlimit:2;"><rect id="Record2" x="-0" y="0" width="72" height="72" style="fill:none;"/><rect id="Background" x="-0" y="-0" width="72" height="72" style="fill:#8f0a0a;"/><circle id="Shadow" cx="36" cy="38" r="17.335"/><path d="M36,20.665c9.567,0 17.335,7.768 17.335,17.335c-0,9.567 -7.768,17.335 -17.335,17.335c-9.567,-0 -17.335,-7.768 -17.335,-17.335c0,-9.567 7.768,-17.335 17.335,-17.335Zm0,2c8.463,0 15.335,6.872 15.335,15.335c-0,8.463 -6.872,15.335 -15.335,15.335c-8.463,-0 -15.335,-6.872 -15.335,-15.335c0,-8.463 6.872,-15.335 15.335,-15.335Z" style="fill:#0a0000;"/><circle id="Icon" cx="36" cy="36" r="17.335" style="fill:#8f0a0a;"/><path d="M36,18.665c9.567,0 17.335,7.768 17.335,17.335c-0,9.567 -7.768,17.335 -17.335,17.335c-9.567,-0 -17.335,-7.768 -17.335,-17.335c0,-9.567 7.768,-17.335 17.335,-17.335Zm0,4.5c7.084,0 12.835,5.751 12.835,12.835c-0,7.084 -5.751,12.835 -12.835,12.835c-7.084,-0 -12.835,-5.751 -12.835,-12.835c0,-7.084 5.751,-12.835 12.835,-12.835Z" style="fill:#fff;"/></svg>