<?xml version="1.0" encoding="UTF-8" standalone="no"?><!DOCTYPE svg PUBLIC "-//W3C//DTD SVG 1.1//EN" "http://www.w3.org/Graphics/SVG/1.1/DTD/svg11.dtd"><svg width="100%" height="100%" viewBox="0 0 72 72" version="1.1" xmlns="http://www.w3.org/2000/svg" xmlns:xlink="http://www.w3.org/1999/xlink" xml:space="preserve" xmlns:serif="http://www.serif.com/" style="fill-rule:evenodd;clip-rule:evenodd;stroke-linejoin:round;stroke-miterlimit:2;"><rect id="Recording" x="-0" y="0" width="72" height="72" style="fill:none;"/><rect id="Background" x="-0" y="0" width="72" height="72" style="fill:#1f1f1f;"/><path id="Shadow" d="M50.545,31.5l-1.662,-0c-0.804,-0 -1.454,0.615 -1.454,1.375l-0,4.125c-0,6.349 -5.516,11.458 -12.335,10.968c-0.085,-0.006 -0.171,-0.013 -0.257,-0.021c-6.045,-0.558 -10.266,-5.206 -10.266,-10.947l0,-4.125c0,-0.76 -0.65,-1.375 -1.454,-1.375l-1.662,-0c-0.804,-0 -1.455,0.615 -1.455,1.375l-0,3.451c-0,7.704 5.712,14.683 13.714,15.727l0,2.315l-6.857,0c-0.803,0 0,0.616 0,1.375l0,1.882c0,0.76 -0.803,1.375 0,1.375l18.286,0c0.803,0 -0,-0.615 -0,-1.375l-0,-1.882c-0,-0.759 0.803,-1.375 -0,-1.375l-6.857,0l-0,-2.315c7.792,-1.011 13.714,-7.413 13.714,-15.053l-0,-4.125c-0,-0.76 -0.651,-1.375 -1.455,-1.375Zm-14.545,13.605c4.82,0 9.143,-4.706 9.143,-9.263l-9.143,0l-0,-2.316l9.143,0l-0,-2.315l-9.143,-0l-0,-2.316l9.143,-0l-0,-2.316l-9.143,-0l-0,-2.316l9.143,0c-0,-4.556 -4.323,-9.263 -9.143,-9.263c-4.82,-0 -9.143,4.707 -9.143,9.263l0,12.737c0,4.556 4.323,8.105 9.143,8.105Z" style="fill-rule:nonzero;"/><path id="Icon" d="M50.545,30.5l-1.662,-0c-0.804,-0 -1.454,0.615 -1.454,1.375l-0,4.125c-0,6.349 -5.516,11.458 -12.335,10.968c-0.085,-0.006 -0.171,-0.013 -0.257,-0.021c-6.045,-0.558 -10.266,-5.206 -10.266,-10.947l0,-4.125c0,-0.76 -0.65,-1.375 -1.454,-1.375l-1.662,-0c-0.804,-0 -1.455,0.615 -1.455,1.375l-0,3.451c-0,7.704 5.712,14.683 13.714,15.727l0,2.315l-6.857,0c-0.803,0 0,0.616 0,1.375l0,1.882c0,0.76 -0.803,1.375 0,1.375l18.286,0c0.803,0 -0,-0.615 -0,-1.375l-0,-1.882c-0,-0.759 0.803,-1.375 -0,-1.375l-6.857,0l-0,-2.315c7.792,-1.011 13.714,-7.413 13.714,-15.053l-0,-4.125c-0,-0.76 -0.651,-1.375 -1.455,-1.375Zm-14.545,13.605c4.82,0 9.143,-4.706 9.143,-9.263l-9.143,0l-0,-2.316l9.143,0l-0,-2.315l-9.143,-0l-0,-2.316l9.143,-0l-0,-2.316l-9.143,-0l-0,-2.316l9.143,0c-0,-4.556 -4.323,-9.263 -9.143,-9.263c-4.82,-0 -9.143,4.707 -9.143,9.263l0,12.737c0,4.556 4.323,8.105 9.143,8.105Z" style="fill:#d8d8d8;fill-rule:nonzero;"/></svg>