<?xml version="1.0" encoding="UTF-8" standalone="no"?><!DOCTYPE svg PUBLIC "-//W3C//DTD SVG 1.1//EN" "http://www.w3.org/Graphics/SVG/1.1/DTD/svg11.dtd"><svg width="100%" height="100%" viewBox="0 0 72 72" version="1.1" xmlns="http://www.w3.org/2000/svg" xmlns:xlink="http://www.w3.org/1999/xlink" xml:space="preserve" xmlns:serif="http://www.serif.com/" style="fill-rule:evenodd;clip-rule:evenodd;stroke-linejoin:round;stroke-miterlimit:2;"><rect id="Recording" x="0" y="0" width="72" height="72" style="fill:none;"/><path d="M53.416,29.5l-1.99,0c-0.962,0 -1.742,0.727 -1.742,1.625l0,4.875c0,7.503 -6.604,13.542 -14.769,12.962c-0.102,-0.007 -0.204,-0.016 -0.307,-0.025c-7.239,-0.659 -12.292,-6.152 -12.292,-12.937l0,-4.875c0,-0.898 -0.78,-1.625 -1.742,-1.625l-1.99,0c-0.963,0 -1.742,0.727 -1.742,1.625l0,4.079c0,9.104 6.839,17.353 16.421,18.585l0,2.737l-8.21,0c-0.963,0 0,0.728 0,1.625l0,2.224c0,0.898 -0.963,1.625 0,1.625l21.894,0c0.963,0 0,-0.727 0,-1.625l0,-2.224c0,-0.897 0.963,-1.625 0,-1.625l-8.21,0l0,-2.737c9.33,-1.194 16.421,-8.76 16.421,-17.789l0,-4.875c0,-0.898 -0.779,-1.625 -1.742,-1.625Zm-17.416,16.079c5.771,0 10.947,-5.563 10.947,-10.947l-10.947,0l0,-2.737l10.947,0l0,-2.737l-10.947,0l0,-2.737l10.947,0l0,-2.737l-10.947,0l0,-2.737l10.947,0c0,-5.384 -5.176,-10.947 -10.947,-10.947c-5.771,0 -10.947,5.563 -10.947,10.947l0,15.053c0,5.385 5.176,9.579 10.947,9.579Z" style="fill:#d8d8d8;fill-rule:nonzero;"/></svg>