<?xml version="1.0" encoding="UTF-8" standalone="no"?><!DOCTYPE svg PUBLIC "-//W3C//DTD SVG 1.1//EN" "http://www.w3.org/Graphics/SVG/1.1/DTD/svg11.dtd"><svg width="100%" height="100%" viewBox="0 0 72 72" version="1.1" xmlns="http://www.w3.org/2000/svg" xmlns:xlink="http://www.w3.org/1999/xlink" xml:space="preserve" xmlns:serif="http://www.serif.com/" style="fill-rule:evenodd;clip-rule:evenodd;stroke-linejoin:round;stroke-miterlimit:2;"><rect id="RepeatOn" x="0" y="0" width="72" height="72" style="fill:none;"/><circle cx="36" cy="36" r="26" style="fill:#d8d8d8;"/><path d="M52.834,36c0.613,0 1.196,0.226 1.607,0.622c0.41,0.396 0.608,0.924 0.545,1.455c-0.535,3.526 -2.344,6.939 -5.453,9.636c-3.597,3.118 -8.27,4.723 -12.976,4.816l0,3.368c0,1.425 -1.98,2.139 -3.139,1.131l-7.261,-6.32c-0.718,-0.625 -0.718,-1.638 0,-2.263l7.261,-6.319c1.159,-1.008 3.139,-0.294 3.139,1.131l0,3.936c3.237,-0.092 6.268,-1.22 8.586,-3.203c2.057,-1.76 3.304,-3.998 3.706,-6.334c0.136,-0.93 1.045,-1.627 2.121,-1.627c0.595,-0.029 1.252,-0.029 1.864,-0.029Zm-33.668,0c-0.613,0 -1.196,-0.226 -1.607,-0.622c-0.41,-0.396 -0.608,-0.924 -0.545,-1.455c0.535,-3.526 2.344,-6.939 5.453,-9.636c3.597,-3.118 8.27,-4.723 12.976,-4.816l0,-3.368c0,-1.425 1.98,-2.139 3.139,-1.131l7.261,6.32c0.718,0.625 0.718,1.638 0,2.263l-7.261,6.319c-1.159,1.008 -3.139,0.294 -3.139,-1.131l0,-3.936c-3.237,0.092 -6.268,1.22 -8.586,3.203c-2.057,1.76 -3.304,3.998 -3.706,6.334c-0.136,0.93 -1.045,1.627 -2.121,1.627c-0.595,0.029 -1.252,0.029 -1.864,0.029Z" style="fill:#0092c8;fill-rule:nonzero;"/></svg>