<?xml version="1.0" encoding="UTF-8" standalone="no"?><!DOCTYPE svg PUBLIC "-//W3C//DTD SVG 1.1//EN" "http://www.w3.org/Graphics/SVG/1.1/DTD/svg11.dtd"><svg width="100%" height="100%" viewBox="0 0 72 72" version="1.1" xmlns="http://www.w3.org/2000/svg" xmlns:xlink="http://www.w3.org/1999/xlink" xml:space="preserve" xmlns:serif="http://www.serif.com/" style="fill-rule:evenodd;clip-rule:evenodd;stroke-linejoin:round;stroke-miterlimit:2;"><rect id="RepeatOn" x="-0" y="0" width="72" height="72" style="fill:none;"/><rect id="Background" x="0" y="0" width="72" height="72" style="fill:#2d539f;"/><path id="Shadow" d="M37.84,61.75l-10.755,-9.564l10.745,-9.564l0.01,6.27c0,0 6.078,-1.3 8.183,-6.163c2.937,-6.791 -1.064,-11.158 -1.064,-11.158l5,-4.676c0,0 7.485,8.099 1.702,19.34c-4.859,9.446 -13.821,9.352 -13.821,9.352l0,6.163Zm-3.654,-47.5l10.773,9.564l-10.763,9.564l-0.01,-6.27c-0,-0 -6.088,1.3 -8.196,6.163c-2.942,6.791 1.066,11.158 1.066,11.158l-5.009,4.676c0,-0 -7.497,-8.099 -1.705,-19.34c4.867,-9.446 13.844,-9.352 13.844,-9.352l-0,-6.163Z"/><path id="Icon" d="M37.84,59.75l-10.755,-9.564l10.745,-9.564l0.01,6.27c0,0 6.078,-1.3 8.183,-6.163c2.937,-6.791 -1.064,-11.158 -1.064,-11.158l5,-4.676c0,0 7.485,8.099 1.702,19.34c-4.859,9.446 -13.821,9.352 -13.821,9.352l0,6.163Zm-3.654,-47.5l10.773,9.564l-10.763,9.564l-0.01,-6.27c-0,-0 -6.088,1.3 -8.196,6.163c-2.942,6.791 1.066,11.158 1.066,11.158l-5.009,4.676c0,-0 -7.497,-8.099 -1.705,-19.34c4.867,-9.446 13.844,-9.352 13.844,-9.352l-0,-6.163Z" style="fill:#d8d8d8;"/></svg>