<?xml version="1.0" encoding="UTF-8" standalone="no"?><!DOCTYPE svg PUBLIC "-//W3C//DTD SVG 1.1//EN" "http://www.w3.org/Graphics/SVG/1.1/DTD/svg11.dtd"><svg width="100%" height="100%" viewBox="0 0 72 72" version="1.1" xmlns="http://www.w3.org/2000/svg" xmlns:xlink="http://www.w3.org/1999/xlink" xml:space="preserve" xmlns:serif="http://www.serif.com/" style="fill-rule:evenodd;clip-rule:evenodd;stroke-linejoin:round;stroke-miterlimit:2;"><rect id="Ripple_all" x="0" y="0" width="72" height="72" style="fill:none;"/><rect id="Background" x="0" y="-0" width="72" height="72" style="fill:#1f1f1f;"/><path id="Shadow" d="M27.844,50l-9.063,-0l0,-7.25l9.063,-0l-0,7.25Zm12.687,-0l-9.062,-0l-0,-7.25l9.062,-0l0,7.25Zm12.688,-0l-9.063,-0l0,-7.25l9.063,-0l-0,7.25Zm-25.375,-10.875l-9.063,0l0,-7.25l9.063,0l-0,7.25Zm12.687,0l-9.062,0l-0,-7.25l9.062,0l0,7.25Zm12.688,0l-9.063,0l0,-7.25l9.063,0l-0,7.25Zm-25.375,-18.125l-0,7.25l-9.063,-0l0,-7.25l9.063,0Zm12.687,0l0,7.25l-9.062,-0l-0,-7.25l9.062,0Zm12.688,0l-0,7.25l-9.063,-0l0,-7.25l9.063,0Z"/><path id="Icon" d="M27.844,49l-9.063,-0l0,-7.25l9.063,-0l-0,7.25Zm12.687,-0l-9.062,-0l-0,-7.25l9.062,-0l0,7.25Zm12.688,-0l-9.063,-0l0,-7.25l9.063,-0l-0,7.25Zm-25.375,-10.875l-9.063,-0l0,-7.25l9.063,-0l-0,7.25Zm12.687,-0l-9.062,-0l-0,-7.25l9.062,-0l0,7.25Zm12.688,-0l-9.063,-0l0,-7.25l9.063,-0l-0,7.25Zm-25.375,-18.125l-0,7.25l-9.063,-0l0,-7.25l9.063,-0Zm12.687,-0l0,7.25l-9.062,-0l-0,-7.25l9.062,-0Zm12.688,-0l-0,7.25l-9.063,-0l0,-7.25l9.063,-0Z" style="fill:#d8d8d8;"/></svg>