<?xml version="1.0" encoding="UTF-8" standalone="no"?><!DOCTYPE svg PUBLIC "-//W3C//DTD SVG 1.1//EN" "http://www.w3.org/Graphics/SVG/1.1/DTD/svg11.dtd"><svg width="100%" height="100%" viewBox="0 0 72 72" version="1.1" xmlns="http://www.w3.org/2000/svg" xmlns:xlink="http://www.w3.org/1999/xlink" xml:space="preserve" xmlns:serif="http://www.serif.com/" style="fill-rule:evenodd;clip-rule:evenodd;stroke-linejoin:round;stroke-miterlimit:2;"><rect id="Ripple_cut" x="-0" y="0" width="72" height="72" style="fill:none;"/><rect id="Background" x="-0" y="-0" width="72" height="72" style="fill:#1f1f1f;"/><g id="Shadow"><path d="M19.111,53l-2.111,0l0,-34l12.667,0l-10.556,10l0,24Zm35.889,-34l0,34l-2.111,0l-0,-24l-10.556,-10l12.667,0Z" style="fill-rule:nonzero;"/><path d="M36,36.755l8.377,-7.731c0.017,-0.015 0.04,-0.024 0.064,-0.024c0.023,0 0.046,0.009 0.063,0.024c-0,0 -0,0 -0,0c1.356,1.252 1.356,3.282 -0,4.533l-5.985,5.523l2.124,1.96c0.462,-0.15 0.958,-0.232 1.474,-0.232c2.45,0 4.439,1.836 4.439,4.096c-0,2.261 -1.989,4.096 -4.439,4.096c-2.449,0 -4.438,-1.835 -4.438,-4.096c0,-0.574 0.129,-1.121 0.36,-1.617l-2.039,-1.882l-2.039,1.882c0.231,0.496 0.36,1.043 0.36,1.617c-0,2.261 -1.989,4.096 -4.438,4.096c-2.45,0 -4.439,-1.835 -4.439,-4.096c0,-2.26 1.989,-4.096 4.439,-4.096c0.516,0 1.012,0.082 1.474,0.232l2.124,-1.96l-5.985,-5.523c-1.356,-1.251 -1.356,-3.281 0,-4.533c0,0 0,0 0,0c0.017,-0.015 0.04,-0.024 0.063,-0.024c0.024,-0 0.047,0.009 0.064,0.024l8.377,7.731Zm6.117,6.101c1.225,0 2.219,0.918 2.219,2.048c0,1.131 -0.994,2.048 -2.219,2.048c-1.224,0 -2.219,-0.917 -2.219,-2.048c0,-1.13 0.995,-2.048 2.219,-2.048Zm-12.234,0c1.224,0 2.219,0.918 2.219,2.048c-0,1.131 -0.995,2.048 -2.219,2.048c-1.225,0 -2.219,-0.917 -2.219,-2.048c-0,-1.13 0.994,-2.048 2.219,-2.048Z"/></g><g id="Icon"><path d="M19.111,51l-2.111,0l0,-34l12.667,0l-10.556,10l0,24Zm35.889,-34l0,34l-2.111,0l-0,-24l-10.556,-10l12.667,0Z" style="fill:#d8d8d8;fill-rule:nonzero;"/><path d="M36,34.755l8.377,-7.731c0.017,-0.015 0.04,-0.024 0.064,-0.024c0.023,0 0.046,0.009 0.063,0.024c-0,0 -0,0 -0,0c1.356,1.252 1.356,3.282 -0,4.533l-5.985,5.523l2.124,1.96c0.462,-0.15 0.958,-0.232 1.474,-0.232c2.45,0 4.439,1.836 4.439,4.096c-0,2.261 -1.989,4.096 -4.439,4.096c-2.449,0 -4.438,-1.835 -4.438,-4.096c0,-0.574 0.129,-1.121 0.36,-1.617l-2.039,-1.882l-2.039,1.882c0.231,0.496 0.36,1.043 0.36,1.617c-0,2.261 -1.989,4.096 -4.438,4.096c-2.45,0 -4.439,-1.835 -4.439,-4.096c0,-2.26 1.989,-4.096 4.439,-4.096c0.516,0 1.012,0.082 1.474,0.232l2.124,-1.96l-5.985,-5.523c-1.356,-1.251 -1.356,-3.281 0,-4.533c0,0 0,0 0,0c0.017,-0.015 0.04,-0.024 0.063,-0.024c0.024,-0 0.047,0.009 0.064,0.024l8.377,7.731Zm6.117,6.101c1.225,0 2.219,0.918 2.219,2.048c0,1.131 -0.994,2.048 -2.219,2.048c-1.224,0 -2.219,-0.917 -2.219,-2.048c0,-1.13 0.995,-2.048 2.219,-2.048Zm-12.234,0c1.224,0 2.219,0.918 2.219,2.048c-0,1.131 -0.995,2.048 -2.219,2.048c-1.225,0 -2.219,-0.917 -2.219,-2.048c-0,-1.13 0.994,-2.048 2.219,-2.048Z" style="fill:#d8d8d8;"/></g></svg>