<?xml version="1.0" encoding="UTF-8" standalone="no"?><!DOCTYPE svg PUBLIC "-//W3C//DTD SVG 1.1//EN" "http://www.w3.org/Graphics/SVG/1.1/DTD/svg11.dtd"><svg width="100%" height="100%" viewBox="0 0 72 72" version="1.1" xmlns="http://www.w3.org/2000/svg" xmlns:xlink="http://www.w3.org/1999/xlink" xml:space="preserve" xmlns:serif="http://www.serif.com/" style="fill-rule:evenodd;clip-rule:evenodd;stroke-linejoin:round;stroke-miterlimit:2;"><rect id="Ripple_one" x="0" y="0" width="72" height="72" style="fill:none;"/><rect id="Background" x="-0" y="-0" width="72" height="72" style="fill:#1f1f1f;"/><path id="Shadow" d="M26.049,48.138l-5.427,0l-0,-3.618l5.427,-0l0,3.618Zm12.665,0l-5.428,0l0,-3.618l5.428,-0l-0,3.618Zm12.664,0l-5.427,0l-0,-3.618l5.427,-0l0,3.618Zm-25.329,-9.046l-5.427,0l-0,-3.618l5.427,-0l0,3.618Zm12.665,0l-5.428,0l0,-3.618l5.428,-0l-0,3.618Zm12.664,0l-5.427,0l-0,-3.618l5.427,-0l0,3.618Zm-23.519,-18.092l-0,9.046l-9.047,0l0,-9.046l9.047,0Zm12.664,0l0,9.046l-9.046,0l-0,-9.046l9.046,0Zm12.664,0l0,9.046l-9.046,0l0,-9.046l9.046,0Z"/><path id="Icon" d="M26.049,47.138l-5.427,0l-0,-3.618l5.427,-0l0,3.618Zm12.665,0l-5.428,0l0,-3.618l5.428,-0l-0,3.618Zm12.664,0l-5.427,0l-0,-3.618l5.427,-0l0,3.618Zm-25.329,-9.046l-5.427,0l-0,-3.618l5.427,-0l0,3.618Zm12.665,0l-5.428,0l0,-3.618l5.428,-0l-0,3.618Zm12.664,0l-5.427,0l-0,-3.618l5.427,-0l0,3.618Zm-23.519,-18.092l-0,9.046l-9.047,0l0,-9.046l9.047,0Zm12.664,0l0,9.046l-9.046,0l-0,-9.046l9.046,0Zm12.664,0l0,9.046l-9.046,0l0,-9.046l9.046,0Z" style="fill:#d8d8d8;"/></svg>