<?xml version="1.0" encoding="UTF-8" standalone="no"?><!DOCTYPE svg PUBLIC "-//W3C//DTD SVG 1.1//EN" "http://www.w3.org/Graphics/SVG/1.1/DTD/svg11.dtd"><svg width="100%" height="100%" viewBox="0 0 72 72" version="1.1" xmlns="http://www.w3.org/2000/svg" xmlns:xlink="http://www.w3.org/1999/xlink" xml:space="preserve" xmlns:serif="http://www.serif.com/" style="fill-rule:evenodd;clip-rule:evenodd;stroke-linejoin:round;stroke-miterlimit:2;"><rect id="Routing4" x="0" y="0" width="72" height="72" style="fill:none;"/><rect id="Background" x="0" y="0" width="72" height="72" style="fill:#1f1f1f;"/><g id="Shadow"><path d="M51,15l-32,0l-0,40l32,0l-0,-40Zm-1.636,2.469l-28.728,-0l0,29.056l28.728,0l-0,-29.056Z"/><path d="M36.83,34.615l-0,-10.936l-6.113,10.936l6.113,-0Zm-1.742,7.435c-0.516,0 -0.866,-0.083 -1.048,-0.25c-0.183,-0.166 -0.275,-0.47 -0.275,-0.911c0,-0.387 0.094,-0.669 0.283,-0.847c0.188,-0.177 0.492,-0.266 0.911,-0.266l1.871,0l-0,-2.71l-7.532,0c-0.269,0 -0.479,-0.086 -0.629,-0.258c-0.151,-0.172 -0.226,-0.419 -0.226,-0.742l-0,-1.112c-0,-0.431 0.156,-0.882 0.468,-1.355c0.053,-0.086 0.096,-0.156 0.129,-0.21l6.806,-11.548c0.151,-0.269 0.274,-0.441 0.371,-0.517c0.097,-0.075 0.226,-0.112 0.387,-0.112c0.065,-0 0.177,0.01 0.339,0.032c0.043,0.011 0.086,0.021 0.129,0.032l1.645,0.258c0.151,0.022 0.271,0.105 0.363,0.25c0.091,0.145 0.137,0.336 0.137,0.573l-0,12.258l0.823,-0c0.236,-0 0.419,-0.094 0.548,-0.282c0.129,-0.189 0.274,-0.283 0.435,-0.283c0.215,0 0.398,0.081 0.549,0.242c0.15,0.162 0.226,0.36 0.226,0.597c-0,0.097 -0.006,0.185 -0.017,0.266c-0.01,0.081 -0.032,0.164 -0.064,0.25l-0.129,0.661c-0.075,0.388 -0.186,0.651 -0.331,0.791c-0.145,0.14 -0.373,0.209 -0.685,0.209l-1.355,0l-0,2.71l0.564,0c0.689,0 1.162,0.083 1.42,0.25c0.258,0.167 0.387,0.454 0.387,0.863c-0,0.387 -0.108,0.677 -0.323,0.871c-0.215,0.194 -0.537,0.29 -0.967,0.29l-5.21,0Z" style="fill-rule:nonzero;"/></g><g id="Icon"><path d="M51,14l-32,0l-0,40l32,0l-0,-40Zm-1.636,2.469l-28.728,-0l0,29.056l28.728,0l-0,-29.056Z" style="fill:#d8d8d8;"/><path d="M36.83,33.615l-0,-10.936l-6.113,10.936l6.113,-0Zm-1.742,7.435c-0.516,0 -0.866,-0.083 -1.048,-0.25c-0.183,-0.166 -0.275,-0.47 -0.275,-0.911c0,-0.387 0.094,-0.669 0.283,-0.847c0.188,-0.177 0.492,-0.266 0.911,-0.266l1.871,0l-0,-2.71l-7.532,0c-0.269,0 -0.479,-0.086 -0.629,-0.258c-0.151,-0.172 -0.226,-0.419 -0.226,-0.742l-0,-1.112c-0,-0.431 0.156,-0.882 0.468,-1.355c0.053,-0.086 0.096,-0.156 0.129,-0.21l6.806,-11.548c0.151,-0.269 0.274,-0.441 0.371,-0.517c0.097,-0.075 0.226,-0.112 0.387,-0.112c0.065,-0 0.177,0.01 0.339,0.032c0.043,0.011 0.086,0.021 0.129,0.032l1.645,0.258c0.151,0.022 0.271,0.105 0.363,0.25c0.091,0.145 0.137,0.336 0.137,0.573l-0,12.258l0.823,-0c0.236,-0 0.419,-0.094 0.548,-0.282c0.129,-0.189 0.274,-0.283 0.435,-0.283c0.215,0 0.398,0.081 0.549,0.242c0.15,0.162 0.226,0.36 0.226,0.597c-0,0.097 -0.006,0.185 -0.017,0.266c-0.01,0.081 -0.032,0.164 -0.064,0.25l-0.129,0.661c-0.075,0.388 -0.186,0.651 -0.331,0.791c-0.145,0.14 -0.373,0.209 -0.685,0.209l-1.355,0l-0,2.71l0.564,0c0.689,0 1.162,0.083 1.42,0.25c0.258,0.167 0.387,0.454 0.387,0.863c-0,0.387 -0.108,0.677 -0.323,0.871c-0.215,0.194 -0.537,0.29 -0.967,0.29l-5.21,0Z" style="fill:#d8d8d8;fill-rule:nonzero;"/></g></svg>