<?xml version="1.0" encoding="UTF-8" standalone="no"?><!DOCTYPE svg PUBLIC "-//W3C//DTD SVG 1.1//EN" "http://www.w3.org/Graphics/SVG/1.1/DTD/svg11.dtd"><svg width="100%" height="100%" viewBox="0 0 72 72" version="1.1" xmlns="http://www.w3.org/2000/svg" xmlns:xlink="http://www.w3.org/1999/xlink" xml:space="preserve" xmlns:serif="http://www.serif.com/" style="fill-rule:evenodd;clip-rule:evenodd;stroke-linejoin:round;stroke-miterlimit:2;"><rect id="Routing1" x="0" y="0" width="72" height="72" style="fill:none;"/><rect id="Background" x="0" y="0" width="72" height="72" style="fill:#1f1f1f;"/><g id="Shadow"><path d="M52,15l-32,0l-0,40l32,0l-0,-40Zm-1.636,2.469l-28.728,-0l0,29.056l28.728,0l-0,-29.056Z"/><path d="M32.62,24.744c-0.14,0.021 -0.244,0.037 -0.314,0.048c-0.07,0.011 -0.132,0.016 -0.186,0.016c-0.333,0 -0.605,-0.094 -0.814,-0.282c-0.21,-0.188 -0.315,-0.438 -0.315,-0.75c0,-0.258 0.092,-0.484 0.274,-0.677c0.183,-0.194 0.447,-0.339 0.791,-0.436l4.79,-1.29c0.118,-0.032 0.234,-0.057 0.347,-0.073c0.113,-0.016 0.228,-0.024 0.347,-0.024c0.204,0 0.365,0.094 0.483,0.282c0.119,0.189 0.178,0.444 0.178,0.766l-0,17.452l2.58,0c0.957,0 1.565,0.078 1.823,0.234c0.258,0.156 0.387,0.449 0.387,0.879c0,0.387 -0.107,0.677 -0.322,0.871c-0.215,0.194 -0.538,0.29 -0.968,0.29l-9.645,0c-0.43,0 -0.753,-0.096 -0.968,-0.29c-0.215,-0.194 -0.323,-0.484 -0.323,-0.871c0,-0.43 0.129,-0.723 0.387,-0.879c0.259,-0.156 0.866,-0.234 1.823,-0.234l2.677,0l0,-15.758l-3.032,0.726Z" style="fill-rule:nonzero;"/></g><g id="Icon"><path d="M52,14l-32,0l-0,40l32,0l-0,-40Zm-1.636,2.469l-28.728,-0l0,29.056l28.728,0l-0,-29.056Z" style="fill:#d8d8d8;"/><path d="M32.62,23.744c-0.14,0.021 -0.244,0.037 -0.314,0.048c-0.07,0.011 -0.132,0.016 -0.186,0.016c-0.333,0 -0.605,-0.094 -0.814,-0.282c-0.21,-0.188 -0.315,-0.438 -0.315,-0.75c0,-0.258 0.092,-0.484 0.274,-0.677c0.183,-0.194 0.447,-0.339 0.791,-0.436l4.79,-1.29c0.118,-0.032 0.234,-0.057 0.347,-0.073c0.113,-0.016 0.228,-0.024 0.347,-0.024c0.204,0 0.365,0.094 0.483,0.282c0.119,0.189 0.178,0.444 0.178,0.766l-0,17.452l2.58,0c0.957,0 1.565,0.078 1.823,0.234c0.258,0.156 0.387,0.449 0.387,0.879c0,0.387 -0.107,0.677 -0.322,0.871c-0.215,0.194 -0.538,0.29 -0.968,0.29l-9.645,0c-0.43,0 -0.753,-0.096 -0.968,-0.29c-0.215,-0.194 -0.323,-0.484 -0.323,-0.871c0,-0.43 0.129,-0.723 0.387,-0.879c0.259,-0.156 0.866,-0.234 1.823,-0.234l2.677,0l0,-15.758l-3.032,0.726Z" style="fill:#d8d8d8;fill-rule:nonzero;"/></g></svg>