<?xml version="1.0" encoding="UTF-8" standalone="no"?><!DOCTYPE svg PUBLIC "-//W3C//DTD SVG 1.1//EN" "http://www.w3.org/Graphics/SVG/1.1/DTD/svg11.dtd"><svg width="100%" height="100%" viewBox="0 0 72 72" version="1.1" xmlns="http://www.w3.org/2000/svg" xmlns:xlink="http://www.w3.org/1999/xlink" xml:space="preserve" xmlns:serif="http://www.serif.com/" style="fill-rule:evenodd;clip-rule:evenodd;stroke-linejoin:round;stroke-miterlimit:2;"><rect id="Routing2" x="0" y="0" width="72" height="72" style="fill:none;"/><rect id="Background" x="0" y="0" width="72" height="72" style="fill:#1f1f1f;"/><g id="Shadow"><path d="M52,15l-32,0l-0,40l32,0l-0,-40Zm-1.636,2.469l-28.728,-0l0,29.056l28.728,0l-0,-29.056Z"/><path d="M30.862,42.05c-0.57,0 -0.992,-0.115 -1.266,-0.346c-0.274,-0.232 -0.411,-0.589 -0.411,-1.073c-0,-0.699 1.032,-2.011 3.096,-3.936l0.468,-0.451c0.312,-0.301 0.764,-0.731 1.355,-1.29c3.721,-3.506 5.581,-6.06 5.581,-7.662c-0,-1.15 -0.328,-2.083 -0.984,-2.798c-0.656,-0.715 -1.506,-1.073 -2.549,-1.073c-0.677,0 -1.325,0.14 -1.943,0.42c-0.618,0.279 -1.116,0.656 -1.492,1.129c-0.065,0.086 -0.167,0.231 -0.306,0.435c-0.398,0.721 -0.845,1.081 -1.339,1.081c-0.387,-0 -0.661,-0.119 -0.823,-0.355c-0.161,-0.237 -0.242,-0.688 -0.242,-1.355c0,-0.387 0.038,-0.669 0.113,-0.847c0.075,-0.177 0.215,-0.368 0.42,-0.572c0.688,-0.667 1.54,-1.197 2.556,-1.589c1.016,-0.392 2.056,-0.589 3.121,-0.589c1.785,0 3.277,0.576 4.476,1.726c1.199,1.151 1.798,2.565 1.798,4.242c0,2.108 -1.828,4.909 -5.484,8.403c-0.935,0.871 -1.65,1.554 -2.145,2.049l-1.984,1.903l7.371,-0c0.043,-0.462 0.17,-0.815 0.379,-1.057c0.21,-0.241 0.492,-0.362 0.847,-0.362c0.355,-0 0.634,0.118 0.839,0.354c0.204,0.237 0.306,0.56 0.306,0.968l-0.032,0.339l-0.129,1.242c-0.032,0.333 -0.129,0.594 -0.29,0.782c-0.162,0.188 -0.371,0.282 -0.629,0.282l-10.678,0Z" style="fill-rule:nonzero;"/></g><g id="Icon"><path d="M52,14l-32,0l-0,40l32,0l-0,-40Zm-1.636,2.469l-28.728,-0l0,29.056l28.728,0l-0,-29.056Z" style="fill:#d8d8d8;"/><path d="M30.862,41.05c-0.57,0 -0.992,-0.115 -1.266,-0.346c-0.274,-0.232 -0.411,-0.589 -0.411,-1.073c-0,-0.699 1.032,-2.011 3.096,-3.936l0.468,-0.451c0.312,-0.301 0.764,-0.731 1.355,-1.29c3.721,-3.506 5.581,-6.06 5.581,-7.662c-0,-1.15 -0.328,-2.083 -0.984,-2.798c-0.656,-0.715 -1.506,-1.073 -2.549,-1.073c-0.677,0 -1.325,0.14 -1.943,0.42c-0.618,0.279 -1.116,0.656 -1.492,1.129c-0.065,0.086 -0.167,0.231 -0.306,0.435c-0.398,0.721 -0.845,1.081 -1.339,1.081c-0.387,-0 -0.661,-0.119 -0.823,-0.355c-0.161,-0.237 -0.242,-0.688 -0.242,-1.355c0,-0.387 0.038,-0.669 0.113,-0.847c0.075,-0.177 0.215,-0.368 0.42,-0.572c0.688,-0.667 1.54,-1.197 2.556,-1.589c1.016,-0.392 2.056,-0.589 3.121,-0.589c1.785,0 3.277,0.576 4.476,1.726c1.199,1.151 1.798,2.565 1.798,4.242c0,2.108 -1.828,4.909 -5.484,8.403c-0.935,0.871 -1.65,1.554 -2.145,2.049l-1.984,1.903l7.371,-0c0.043,-0.462 0.17,-0.815 0.379,-1.057c0.21,-0.241 0.492,-0.362 0.847,-0.362c0.355,-0 0.634,0.118 0.839,0.354c0.204,0.237 0.306,0.56 0.306,0.968l-0.032,0.339l-0.129,1.242c-0.032,0.333 -0.129,0.594 -0.29,0.782c-0.162,0.188 -0.371,0.282 -0.629,0.282l-10.678,0Z" style="fill:#d8d8d8;fill-rule:nonzero;"/></g></svg>