<?xml version="1.0" encoding="UTF-8" standalone="no"?><!DOCTYPE svg PUBLIC "-//W3C//DTD SVG 1.1//EN" "http://www.w3.org/Graphics/SVG/1.1/DTD/svg11.dtd"><svg width="100%" height="100%" viewBox="0 0 72 72" version="1.1" xmlns="http://www.w3.org/2000/svg" xmlns:xlink="http://www.w3.org/1999/xlink" xml:space="preserve" xmlns:serif="http://www.serif.com/" style="fill-rule:evenodd;clip-rule:evenodd;stroke-linejoin:round;stroke-miterlimit:2;"><rect id="Routing3" x="0" y="0" width="72" height="72" style="fill:none;"/><rect id="Background" x="0" y="0" width="72" height="72" style="fill:#1f1f1f;"/><g id="Shadow"><path d="M51,15l-32,0l-0,40l32,0l-0,-40Zm-1.636,2.469l-28.728,-0l0,29.056l28.728,0l-0,-29.056Z"/><path d="M37.991,30.954c1.258,0.344 2.234,0.97 2.928,1.879c0.693,0.908 1.04,2.018 1.04,3.33c-0,1.882 -0.667,3.422 -2,4.621c-1.333,1.199 -3.059,1.799 -5.178,1.799c-1.634,-0 -3.088,-0.315 -4.362,-0.944c-1.275,-0.629 -1.912,-1.32 -1.912,-2.073c0,-0.322 0.116,-0.588 0.347,-0.798c0.231,-0.21 0.514,-0.314 0.847,-0.314c0.183,-0 0.847,0.274 1.992,0.822c1.145,0.548 2.212,0.823 3.201,0.823c1.28,-0 2.32,-0.366 3.121,-1.097c0.801,-0.731 1.202,-1.678 1.202,-2.839c-0,-0.957 -0.277,-1.766 -0.831,-2.427c-0.553,-0.662 -1.314,-1.084 -2.282,-1.266c-0.29,-0.054 -0.672,-0.097 -1.145,-0.129c-0.903,-0.054 -1.355,-0.431 -1.355,-1.129c0,-0.635 0.441,-1.006 1.323,-1.113c0.344,-0.033 0.629,-0.07 0.854,-0.113c0.839,-0.129 1.517,-0.473 2.033,-1.032c0.516,-0.56 0.774,-1.237 0.774,-2.033c-0,-1.021 -0.317,-1.855 -0.952,-2.5c-0.634,-0.645 -1.441,-0.967 -2.419,-0.967c-0.903,-0 -1.831,0.279 -2.782,0.838c-0.952,0.559 -1.546,0.839 -1.783,0.839c-0.301,-0 -0.551,-0.097 -0.75,-0.29c-0.198,-0.194 -0.298,-0.436 -0.298,-0.726c0,-0.656 0.602,-1.309 1.807,-1.96c1.204,-0.65 2.537,-0.976 4,-0.976c1.677,0 3.072,0.508 4.185,1.525c1.113,1.016 1.669,2.266 1.669,3.75c0,1.129 -0.266,2.059 -0.798,2.79c-0.532,0.731 -1.358,1.301 -2.476,1.71Z" style="fill-rule:nonzero;"/></g><g id="Icon"><path d="M51,14l-32,0l-0,40l32,0l-0,-40Zm-1.636,2.469l-28.728,-0l0,29.056l28.728,0l-0,-29.056Z" style="fill:#d8d8d8;"/><path d="M37.991,29.954c1.258,0.344 2.234,0.97 2.928,1.879c0.693,0.908 1.04,2.018 1.04,3.33c-0,1.882 -0.667,3.422 -2,4.621c-1.333,1.199 -3.059,1.799 -5.178,1.799c-1.634,-0 -3.088,-0.315 -4.362,-0.944c-1.275,-0.629 -1.912,-1.32 -1.912,-2.073c0,-0.322 0.116,-0.588 0.347,-0.798c0.231,-0.21 0.514,-0.314 0.847,-0.314c0.183,-0 0.847,0.274 1.992,0.822c1.145,0.548 2.212,0.823 3.201,0.823c1.28,-0 2.32,-0.366 3.121,-1.097c0.801,-0.731 1.202,-1.678 1.202,-2.839c-0,-0.957 -0.277,-1.766 -0.831,-2.427c-0.553,-0.662 -1.314,-1.084 -2.282,-1.266c-0.29,-0.054 -0.672,-0.097 -1.145,-0.129c-0.903,-0.054 -1.355,-0.431 -1.355,-1.129c0,-0.635 0.441,-1.006 1.323,-1.113c0.344,-0.033 0.629,-0.07 0.854,-0.113c0.839,-0.129 1.517,-0.473 2.033,-1.032c0.516,-0.56 0.774,-1.237 0.774,-2.033c-0,-1.021 -0.317,-1.855 -0.952,-2.5c-0.634,-0.645 -1.441,-0.967 -2.419,-0.967c-0.903,-0 -1.831,0.279 -2.782,0.838c-0.952,0.559 -1.546,0.839 -1.783,0.839c-0.301,-0 -0.551,-0.097 -0.75,-0.29c-0.198,-0.194 -0.298,-0.436 -0.298,-0.726c0,-0.656 0.602,-1.309 1.807,-1.96c1.204,-0.65 2.537,-0.976 4,-0.976c1.677,0 3.072,0.508 4.185,1.525c1.113,1.016 1.669,2.266 1.669,3.75c0,1.129 -0.266,2.059 -0.798,2.79c-0.532,0.731 -1.358,1.301 -2.476,1.71Z" style="fill:#d8d8d8;fill-rule:nonzero;"/></g></svg>