<?xml version="1.0" encoding="UTF-8" standalone="no"?><!DOCTYPE svg PUBLIC "-//W3C//DTD SVG 1.1//EN" "http://www.w3.org/Graphics/SVG/1.1/DTD/svg11.dtd"><svg width="100%" height="100%" viewBox="0 0 72 72" version="1.1" xmlns="http://www.w3.org/2000/svg" xmlns:xlink="http://www.w3.org/1999/xlink" xml:space="preserve" xmlns:serif="http://www.serif.com/" style="fill-rule:evenodd;clip-rule:evenodd;stroke-linejoin:round;stroke-miterlimit:2;"><rect id="Shuttle_Backward" x="0" y="0" width="72" height="72" style="fill:none;"/><rect id="Background" x="-0" y="-0" width="72" height="72" style="fill:#1f1f1f;"/><path id="Shadow" d="M20.301,37.134c-0.309,0.179 -0.5,0.509 -0.5,0.867c0,0.357 0.191,0.687 0.5,0.866c5.276,3.043 22.927,13.226 28.199,16.268c0.31,0.179 0.691,0.179 1,0c0.309,-0.178 0.5,-0.509 0.5,-0.866c0,-6.085 0,-26.452 0,-32.537c0,-0.357 -0.191,-0.687 -0.5,-0.866c-0.309,-0.179 -0.69,-0.179 -1,-0c-5.272,3.042 -22.923,13.225 -28.199,16.268Z"/><path id="Icon" d="M18.301,35.134c-0.309,0.179 -0.5,0.509 -0.5,0.867c0,0.357 0.191,0.687 0.5,0.866c5.276,3.043 22.927,13.226 28.199,16.268c0.31,0.179 0.691,0.179 1,0c0.309,-0.178 0.5,-0.509 0.5,-0.866c0,-6.085 0,-26.452 0,-32.537c0,-0.357 -0.191,-0.687 -0.5,-0.866c-0.309,-0.179 -0.69,-0.179 -1,-0c-5.272,3.042 -22.923,13.225 -28.199,16.268Z" style="fill:#d8d8d8;"/></svg>