<?xml version="1.0" encoding="UTF-8" standalone="no"?><!DOCTYPE svg PUBLIC "-//W3C//DTD SVG 1.1//EN" "http://www.w3.org/Graphics/SVG/1.1/DTD/svg11.dtd"><svg width="100%" height="100%" viewBox="0 0 72 72" version="1.1" xmlns="http://www.w3.org/2000/svg" xmlns:xlink="http://www.w3.org/1999/xlink" xml:space="preserve" xmlns:serif="http://www.serif.com/" style="fill-rule:evenodd;clip-rule:evenodd;stroke-linejoin:round;stroke-miterlimit:2;"><rect id="Soundboard" x="0" y="0" width="72" height="72" style="fill:none;"/><rect id="Background" x="0" y="-0" width="72" height="72" style="fill:#1f1f1f;"/><path d="M69.994,39.255c-0,-5.656 -4.592,-10.248 -10.249,-10.248l-47.497,-0c-5.656,-0 -10.248,4.592 -10.248,10.248l0,20.497c0,5.656 4.592,10.248 10.248,10.248l47.497,-0c5.657,-0 10.249,-4.592 10.249,-10.248l-0,-20.497Z" style="fill:#d8d8d8;"/><g transform="matrix(1,0,0,1,-595.668,-99.4614)"><g transform="matrix(14,0,0,14,611.645,111.007)"><path d="M0.517,-0.642l-0.093,0.055c-0.017,-0.03 -0.033,-0.049 -0.049,-0.059c-0.016,-0.01 -0.037,-0.015 -0.063,-0.015c-0.032,-0 -0.058,0.009 -0.079,0.027c-0.02,0.017 -0.031,0.039 -0.031,0.066c0,0.037 0.027,0.067 0.082,0.089l0.075,0.031c0.062,0.024 0.106,0.055 0.135,0.09c0.028,0.036 0.042,0.08 0.042,0.131c0,0.07 -0.023,0.127 -0.069,0.172c-0.047,0.046 -0.105,0.069 -0.174,0.069c-0.065,-0 -0.119,-0.02 -0.162,-0.058c-0.042,-0.039 -0.068,-0.094 -0.078,-0.164l0.115,-0.025c0.005,0.044 0.014,0.074 0.027,0.091c0.024,0.033 0.058,0.049 0.103,0.049c0.035,0 0.065,-0.012 0.088,-0.035c0.024,-0.024 0.035,-0.054 0.035,-0.091c0,-0.014 -0.002,-0.028 -0.006,-0.04c-0.004,-0.012 -0.01,-0.023 -0.019,-0.034c-0.008,-0.01 -0.02,-0.02 -0.033,-0.029c-0.014,-0.008 -0.03,-0.017 -0.049,-0.025l-0.073,-0.03c-0.103,-0.044 -0.155,-0.108 -0.155,-0.192c0,-0.056 0.022,-0.104 0.065,-0.142c0.044,-0.038 0.098,-0.058 0.162,-0.058c0.087,0 0.155,0.043 0.204,0.127Z" style="fill:#d8d8d8;fill-rule:nonzero;"/></g><g transform="matrix(14,0,0,14,619.807,111.007)"><path d="M0.047,-0.241c-0,-0.069 0.024,-0.127 0.074,-0.176c0.049,-0.048 0.109,-0.072 0.179,-0.072c0.071,0 0.131,0.024 0.181,0.073c0.049,0.048 0.073,0.108 0.073,0.179c0,0.071 -0.024,0.131 -0.074,0.179c-0.049,0.048 -0.11,0.072 -0.182,0.072c-0.071,-0 -0.131,-0.025 -0.179,-0.074c-0.048,-0.048 -0.072,-0.108 -0.072,-0.181Zm0.112,0.002c0,0.047 0.013,0.085 0.038,0.113c0.026,0.028 0.061,0.042 0.103,0.042c0.043,-0 0.078,-0.014 0.103,-0.042c0.026,-0.028 0.039,-0.065 0.039,-0.111c-0,-0.046 -0.013,-0.083 -0.039,-0.111c-0.026,-0.028 -0.06,-0.042 -0.103,-0.042c-0.042,0 -0.076,0.014 -0.102,0.042c-0.026,0.028 -0.039,0.064 -0.039,0.109Z" style="fill:#d8d8d8;fill-rule:nonzero;"/></g><g transform="matrix(14,0,0,14,628.222,111.007)"><path d="M0.179,-0.476l0,0.273c0,0.079 0.031,0.119 0.093,0.119c0.063,-0 0.094,-0.04 0.094,-0.119l-0,-0.273l0.11,0l-0,0.276c-0,0.038 -0.005,0.071 -0.015,0.098c-0.009,0.025 -0.024,0.047 -0.047,0.067c-0.037,0.033 -0.084,0.049 -0.142,0.049c-0.057,-0 -0.104,-0.016 -0.141,-0.049c-0.022,-0.02 -0.039,-0.042 -0.048,-0.067c-0.009,-0.022 -0.014,-0.055 -0.014,-0.098l0,-0.276l0.11,0Z" style="fill:#d8d8d8;fill-rule:nonzero;"/></g><g transform="matrix(14,0,0,14,635.851,111.007)"><path d="M0.069,-0.476l0.111,0l-0,0.044c0.038,-0.038 0.081,-0.057 0.13,-0.057c0.055,0 0.098,0.018 0.129,0.052c0.027,0.03 0.04,0.078 0.04,0.145l0,0.292l-0.11,0l-0,-0.266c-0,-0.046 -0.007,-0.079 -0.02,-0.097c-0.013,-0.018 -0.036,-0.027 -0.069,-0.027c-0.037,-0 -0.063,0.012 -0.078,0.036c-0.015,0.024 -0.022,0.065 -0.022,0.125l-0,0.229l-0.111,0l0,-0.476Z" style="fill:#d8d8d8;fill-rule:nonzero;"/></g><g transform="matrix(14,0,0,14,643.528,111.007)"><path d="M0.42,-0.825l0.11,0l0,0.825l-0.11,-0l-0,-0.05c-0.043,0.043 -0.092,0.064 -0.147,0.064c-0.065,-0 -0.119,-0.024 -0.162,-0.072c-0.043,-0.048 -0.064,-0.109 -0.064,-0.181c-0,-0.071 0.021,-0.13 0.064,-0.178c0.042,-0.048 0.095,-0.072 0.16,-0.072c0.055,0 0.105,0.023 0.149,0.069l-0,-0.405Zm-0.261,0.586c0,0.045 0.012,0.082 0.037,0.111c0.025,0.029 0.056,0.044 0.095,0.044c0.04,-0 0.073,-0.014 0.098,-0.042c0.025,-0.029 0.038,-0.066 0.038,-0.111c-0,-0.044 -0.013,-0.081 -0.038,-0.11c-0.025,-0.028 -0.057,-0.043 -0.097,-0.043c-0.038,0 -0.07,0.015 -0.095,0.043c-0.025,0.029 -0.038,0.065 -0.038,0.108Z" style="fill:#d8d8d8;fill-rule:nonzero;"/></g><g transform="matrix(14,0,0,14,612.414,125.424)"><path d="M0.179,-0.825l0,0.405c0.044,-0.046 0.094,-0.069 0.15,-0.069c0.064,0 0.117,0.024 0.16,0.072c0.042,0.048 0.064,0.107 0.064,0.178c-0,0.073 -0.022,0.134 -0.065,0.181c-0.042,0.048 -0.096,0.072 -0.161,0.072c-0.055,-0 -0.105,-0.021 -0.148,-0.064l0,0.05l-0.11,0l0,-0.825l0.11,0Zm0.261,0.591c0,-0.046 -0.012,-0.083 -0.037,-0.112c-0.025,-0.029 -0.056,-0.044 -0.094,-0.044c-0.04,0 -0.073,0.015 -0.099,0.043c-0.025,0.028 -0.037,0.064 -0.037,0.109c-0,0.046 0.012,0.083 0.037,0.111c0.025,0.028 0.057,0.043 0.098,0.043c0.038,-0 0.069,-0.015 0.094,-0.043c0.026,-0.029 0.038,-0.064 0.038,-0.107Z" style="fill:#d8d8d8;fill-rule:nonzero;"/></g><g transform="matrix(14,0,0,14,620.809,125.424)"><path d="M0.047,-0.241c-0,-0.069 0.024,-0.127 0.074,-0.176c0.049,-0.048 0.109,-0.072 0.179,-0.072c0.071,0 0.131,0.024 0.181,0.073c0.049,0.048 0.073,0.108 0.073,0.179c0,0.071 -0.024,0.131 -0.074,0.179c-0.049,0.048 -0.11,0.072 -0.182,0.072c-0.071,-0 -0.131,-0.025 -0.179,-0.074c-0.048,-0.048 -0.072,-0.108 -0.072,-0.181Zm0.112,0.002c0,0.047 0.013,0.085 0.038,0.113c0.026,0.028 0.061,0.042 0.103,0.042c0.043,-0 0.078,-0.014 0.103,-0.042c0.026,-0.028 0.039,-0.065 0.039,-0.111c-0,-0.046 -0.013,-0.083 -0.039,-0.111c-0.026,-0.028 -0.06,-0.042 -0.103,-0.042c-0.042,0 -0.076,0.014 -0.102,0.042c-0.026,0.028 -0.039,0.064 -0.039,0.109Z" style="fill:#d8d8d8;fill-rule:nonzero;"/></g><g transform="matrix(14,0,0,14,629.224,125.424)"><path d="M0.42,-0.476l0.11,0l0,0.476l-0.11,-0l-0,-0.05c-0.045,0.043 -0.094,0.064 -0.146,0.064c-0.066,-0 -0.12,-0.024 -0.163,-0.072c-0.043,-0.048 -0.064,-0.109 -0.064,-0.181c-0,-0.072 0.021,-0.131 0.064,-0.178c0.042,-0.048 0.096,-0.072 0.16,-0.072c0.055,0 0.105,0.023 0.149,0.069l-0,-0.056Zm-0.261,0.237c0,0.045 0.012,0.082 0.037,0.111c0.025,0.029 0.056,0.044 0.095,0.044c0.04,-0 0.073,-0.014 0.098,-0.042c0.025,-0.029 0.038,-0.066 0.038,-0.111c-0,-0.044 -0.013,-0.081 -0.038,-0.11c-0.025,-0.028 -0.057,-0.043 -0.097,-0.043c-0.038,0 -0.07,0.015 -0.095,0.043c-0.025,0.029 -0.038,0.065 -0.038,0.108Z" style="fill:#d8d8d8;fill-rule:nonzero;"/></g><g transform="matrix(14,0,0,14,637.618,125.424)"><path d="M0.069,-0.476l0.11,0l0,0.043c0.02,-0.021 0.038,-0.036 0.054,-0.044c0.016,-0.008 0.035,-0.012 0.057,-0.012c0.029,0 0.059,0.01 0.09,0.029l-0.05,0.1c-0.021,-0.015 -0.041,-0.022 -0.061,-0.022c-0.06,-0 -0.09,0.045 -0.09,0.135l0,0.247l-0.11,-0l0,-0.476Z" style="fill:#d8d8d8;fill-rule:nonzero;"/></g><g transform="matrix(14,0,0,14,642.759,125.424)"><path d="M0.42,-0.825l0.11,0l0,0.825l-0.11,-0l-0,-0.05c-0.043,0.043 -0.092,0.064 -0.147,0.064c-0.065,-0 -0.119,-0.024 -0.162,-0.072c-0.043,-0.048 -0.064,-0.109 -0.064,-0.181c-0,-0.071 0.021,-0.13 0.064,-0.178c0.042,-0.048 0.095,-0.072 0.16,-0.072c0.055,0 0.105,0.023 0.149,0.069l-0,-0.405Zm-0.261,0.586c0,0.045 0.012,0.082 0.037,0.111c0.025,0.029 0.056,0.044 0.095,0.044c0.04,-0 0.073,-0.014 0.098,-0.042c0.025,-0.029 0.038,-0.066 0.038,-0.111c-0,-0.044 -0.013,-0.081 -0.038,-0.11c-0.025,-0.028 -0.057,-0.043 -0.097,-0.043c-0.038,0 -0.07,0.015 -0.095,0.043c-0.025,0.029 -0.038,0.065 -0.038,0.108Z" style="fill:#d8d8d8;fill-rule:nonzero;"/></g></g></svg>