<?xml version="1.0" encoding="UTF-8" standalone="no"?><!DOCTYPE svg PUBLIC "-//W3C//DTD SVG 1.1//EN" "http://www.w3.org/Graphics/SVG/1.1/DTD/svg11.dtd"><svg width="100%" height="100%" viewBox="0 0 72 72" version="1.1" xmlns="http://www.w3.org/2000/svg" xmlns:xlink="http://www.w3.org/1999/xlink" xml:space="preserve" xmlns:serif="http://www.serif.com/" style="fill-rule:evenodd;clip-rule:evenodd;stroke-linejoin:round;stroke-miterlimit:2;"><rect id="Split_item" x="0" y="0" width="72" height="72" style="fill:none;"/><rect id="Background" x="0" y="-0" width="72" height="72" style="fill:#1f1f1f;"/><path id="Shadow" d="M36.765,50l-1.53,-0l0,-1.579l1.53,0l-0,1.579Zm-0,-3.158l-1.53,0l0,-1.579l1.53,0l-0,1.579Zm-0,-15.789l-1.53,-0l0,1.579l1.53,-0l-0,-1.579Zm-0,12.618l-1.53,-0l0,-1.566l1.53,0l-0,1.566Zm0.004,-15.776l-1.53,-0l0,-1.579l1.53,-0l-0,1.579Zm-0,-3.158l-1.53,-0l0,-1.579l1.53,-0l-0,1.579Zm-0,-3.158l-1.53,-0l0,-1.579l1.53,0l-0,1.579Zm-0.004,15.789l-1.584,-0.01l0.054,1.589l1.53,0l-0,-1.579Zm-0,-1.579l-0,-1.578l-1.53,-0l0,1.578l1.53,0Zm-0,4.737l-1.53,0l0,-0.66c0,1.809 -1.637,3.818 -3.059,3.818l-9.176,0l0,-3.158l9.176,0l0,-11.039l-9.176,0l0,-3.171l9.176,-0.014c1.422,0 3.059,2.02 3.059,3.828l0,-0.67l1.53,0.027l-0,0.643c-0,-1.808 1.637,-3.828 3.059,-3.828l9.176,0l0,3.158l-9.176,0.027l-0,11.039l9.176,0l0,3.158l-9.176,-0.013c-1.421,-0 -3.059,-1.996 -3.059,-3.805l-0,0.66Z"/><path id="Icon" d="M37,55l-2,-0l0,-2.105l2,-0l0,2.105Zm0,-4.211l-2,0l0,-2.105l2,0l0,2.105Zm0,-21.052l-2,-0l0,2.105l2,0l0,-2.105Zm0,16.824l-2,0l0,-2.087l2,-0l0,2.087Zm0.005,-21.035l-2,0l0,-2.105l2,0l0,2.105Zm0,-4.21l-2,-0l0,-2.105l2,-0l0,2.105Zm0,-4.211l-2,0l0,-2.105l2,0l0,2.105Zm-0.005,21.053l-2.071,-0.014l0.071,2.119l2,0l0,-2.105Zm0,-2.105l0,-2.106l-2,0l0,2.106l2,-0Zm0,6.315l-2,0l0,-0.88c-0,2.412 -2.142,5.091 -4,5.091l-12,-0l0,-4.211l12,0l0,-14.719l-12,0l0,-4.228l12,-0.018c1.858,0 4,2.692 4,5.104l0,-0.893l2,0.035l0,0.858c0,-2.412 2.142,-5.104 4,-5.104l12,0l0,4.211l-12,0.035l0,14.719l12,0l0,4.211l-12,-0.018c-1.858,0 -4,-2.661 -4,-5.073l0,0.88Z" style="fill:#d8d8d8;"/></svg>