<?xml version="1.0" encoding="UTF-8" standalone="no"?><!DOCTYPE svg PUBLIC "-//W3C//DTD SVG 1.1//EN" "http://www.w3.org/Graphics/SVG/1.1/DTD/svg11.dtd"><svg width="100%" height="100%" viewBox="0 0 72 72" version="1.1" xmlns="http://www.w3.org/2000/svg" xmlns:xlink="http://www.w3.org/1999/xlink" xml:space="preserve" xmlns:serif="http://www.serif.com/" style="fill-rule:evenodd;clip-rule:evenodd;stroke-linejoin:round;stroke-miterlimit:2;"><rect id="Stop" x="-0" y="0" width="72" height="72" style="fill:none;"/><rect id="Background" x="-0" y="-0" width="72" height="72" style="fill:#1f1f1f;"/><g id="Shadow"><path d="M51,24.934c-0,-1.619 -1.315,-2.934 -2.934,-2.934l-24.132,-0c-1.619,-0 -2.934,1.315 -2.934,2.934l-0,24.132c-0,1.619 1.315,2.934 2.934,2.934l24.132,-0c1.619,-0 2.934,-1.315 2.934,-2.934l-0,-24.132Z"/></g><g id="Icon"><path d="M51,22.934c-0,-1.619 -1.315,-2.934 -2.934,-2.934l-24.132,-0c-1.619,-0 -2.934,1.315 -2.934,2.934l-0,24.132c-0,1.619 1.315,2.934 2.934,2.934l24.132,-0c1.619,-0 2.934,-1.315 2.934,-2.934l-0,-24.132Z" style="fill:#d8d8d8;"/></g></svg>