<?xml version="1.0" encoding="UTF-8" standalone="no"?><!DOCTYPE svg PUBLIC "-//W3C//DTD SVG 1.1//EN" "http://www.w3.org/Graphics/SVG/1.1/DTD/svg11.dtd"><svg width="100%" height="100%" viewBox="0 0 72 72" version="1.1" xmlns="http://www.w3.org/2000/svg" xmlns:xlink="http://www.w3.org/1999/xlink" xml:space="preserve" xmlns:serif="http://www.serif.com/" style="fill-rule:evenodd;clip-rule:evenodd;stroke-linejoin:round;stroke-miterlimit:2;"><rect id="StoryboardView" x="0" y="-0" width="72" height="72" style="fill:none;"/><rect id="Background" x="-0" y="-0" width="72" height="72" style="fill:#1f1f1f;"/><path id="Icon" d="M52,43.297l-0,-23.658c-0,-0.937 -0.764,-1.69 -1.714,-1.69l-23.429,-0c-3.786,-0 -6.857,3.027 -6.857,6.759l0,22.532c0,3.732 3.071,6.76 6.857,6.76l23.429,-0c0.95,-0 1.714,-0.753 1.714,-1.69l-0,-1.127c-0,-0.528 -0.25,-1.006 -0.636,-1.316c-0.3,-1.085 -0.3,-4.176 0,-5.26c0.386,-0.303 0.636,-0.782 0.636,-1.31Zm-22.857,-15.913c-0,-0.232 0.193,-0.422 0.428,-0.422l15.143,-0c0.236,-0 0.429,0.19 0.429,0.422l-0,1.408c-0,0.233 -0.193,0.423 -0.429,0.423l-15.143,-0c-0.235,-0 -0.428,-0.19 -0.428,-0.423l-0,-1.408Zm-0,4.506c-0,-0.232 0.193,-0.422 0.428,-0.422l15.143,-0c0.236,-0 0.429,0.19 0.429,0.422l-0,1.409c-0,0.232 -0.193,0.422 -0.429,0.422l-15.143,0c-0.235,0 -0.428,-0.19 -0.428,-0.422l-0,-1.409Zm18.1,17.604l-20.386,-0c-1.264,-0 -2.286,-1.007 -2.286,-2.254c0,-1.239 1.029,-2.253 2.286,-2.253l20.386,0c-0.136,1.204 -0.136,3.303 -0,4.507Z" style="fill-rule:nonzero;"/><path id="Icon1" serif:id="Icon" d="M52,42.349l-0,-23.659c-0,-0.937 -0.764,-1.69 -1.714,-1.69l-23.429,-0c-3.786,-0 -6.857,3.028 -6.857,6.76l0,22.532c0,3.732 3.071,6.759 6.857,6.759l23.429,0c0.95,0 1.714,-0.753 1.714,-1.69l-0,-1.126c-0,-0.528 -0.25,-1.007 -0.636,-1.317c-0.3,-1.084 -0.3,-4.175 0,-5.26c0.386,-0.303 0.636,-0.781 0.636,-1.309Zm-22.857,-15.914c-0,-0.232 0.193,-0.422 0.428,-0.422l15.143,-0c0.236,-0 0.429,0.19 0.429,0.422l-0,1.409c-0,0.232 -0.193,0.422 -0.429,0.422l-15.143,0c-0.235,0 -0.428,-0.19 -0.428,-0.422l-0,-1.409Zm-0,4.507c-0,-0.233 0.193,-0.423 0.428,-0.423l15.143,0c0.236,0 0.429,0.19 0.429,0.423l-0,1.408c-0,0.232 -0.193,0.422 -0.429,0.422l-15.143,0c-0.235,0 -0.428,-0.19 -0.428,-0.422l-0,-1.408Zm18.1,17.603l-20.386,-0c-1.264,-0 -2.286,-1.007 -2.286,-2.253c0,-1.24 1.029,-2.254 2.286,-2.254l20.386,0c-0.136,1.205 -0.136,3.303 -0,4.507Z" style="fill:#d8d8d8;fill-rule:nonzero;"/></svg>