<?xml version="1.0" encoding="UTF-8" standalone="no"?><!DOCTYPE svg PUBLIC "-//W3C//DTD SVG 1.1//EN" "http://www.w3.org/Graphics/SVG/1.1/DTD/svg11.dtd"><svg width="100%" height="100%" viewBox="0 0 73 72" version="1.1" xmlns="http://www.w3.org/2000/svg" xmlns:xlink="http://www.w3.org/1999/xlink" xml:space="preserve" xmlns:serif="http://www.serif.com/" style="fill-rule:evenodd;clip-rule:evenodd;stroke-linejoin:round;stroke-miterlimit:2;"><rect id="Timestamp_marker" x="0.019" y="-0" width="72" height="72" style="fill:none;"/><path d="M54.367,11.174c-0,-0.311 -0.124,-0.61 -0.344,-0.83c-0.221,-0.22 -0.519,-0.344 -0.831,-0.344c-5.518,0 -28.829,0 -34.347,0c-0.311,0 -0.61,0.124 -0.83,0.344c-0.22,0.22 -0.344,0.519 -0.344,0.83c-0,7.715 -0,50.826 -0,50.826c-0,-0 14.475,-10.604 17.861,-13.084c0.417,-0.305 0.985,-0.302 1.398,0.008c3.326,2.495 17.437,13.076 17.437,13.076l-0,-50.826Z" style="fill:#d8d8d8;"/></svg>