<?xml version="1.0" encoding="UTF-8" standalone="no"?><!DOCTYPE svg PUBLIC "-//W3C//DTD SVG 1.1//EN" "http://www.w3.org/Graphics/SVG/1.1/DTD/svg11.dtd"><svg width="100%" height="100%" viewBox="0 0 72 72" version="1.1" xmlns="http://www.w3.org/2000/svg" xmlns:xlink="http://www.w3.org/1999/xlink" xml:space="preserve" xmlns:serif="http://www.serif.com/" style="fill-rule:evenodd;clip-rule:evenodd;stroke-linejoin:round;stroke-miterlimit:2;"><rect id="unmuted" x="0" y="0" width="72" height="72" style="fill:none;"/><path d="M36,45.75c5.385,0 9.75,-4.365 9.75,-9.75l0,-16.25c0,-5.385 -4.365,-9.75 -9.75,-9.75c-5.385,0 -9.75,4.365 -9.75,9.75l0,16.25c0,5.385 4.365,9.75 9.75,9.75Zm16.25,-16.25l-1.625,0c-0.898,0 -1.625,0.727 -1.625,1.625l0,4.875c0,7.597 -6.55,13.693 -14.299,12.937c-6.754,-0.659 -11.701,-6.731 -11.701,-13.516l0,-4.296c0,-0.898 -0.727,-1.625 -1.625,-1.625l-1.625,0c-0.898,0 -1.625,0.727 -1.625,1.625l0,4.079c0,9.104 6.497,17.22 15.438,18.453l-0.001,3.468l-5.687,0c-0.898,0 -1.625,0.727 -1.625,1.625l0,1.625c0,0.898 0.727,1.625 1.625,1.625l16.25,0c0.898,0 1.625,-0.727 1.625,-1.625l0,-1.625c0,-0.898 -0.727,-1.625 -1.625,-1.625l-5.688,0l0.001,-3.43c8.704,-1.194 15.437,-8.666 15.437,-17.695l0,-4.875c0,-0.898 -0.727,-1.625 -1.625,-1.625Z" style="fill:#d8d8d8;fill-rule:nonzero;"/></svg>