<?xml version="1.0" encoding="UTF-8" standalone="no"?><!DOCTYPE svg PUBLIC "-//W3C//DTD SVG 1.1//EN" "http://www.w3.org/Graphics/SVG/1.1/DTD/svg11.dtd"><svg width="100%" height="100%" viewBox="0 0 72 72" version="1.1" xmlns="http://www.w3.org/2000/svg" xmlns:xlink="http://www.w3.org/1999/xlink" xml:space="preserve" xmlns:serif="http://www.serif.com/" style="fill-rule:evenodd;clip-rule:evenodd;stroke-linejoin:round;stroke-miterlimit:2;"><rect id="Volume_down" x="0" y="0" width="72" height="72" style="fill:none;"/><rect id="Background" x="0" y="-0" width="72" height="72" style="fill:#1f1f1f;"/><path id="Shadow" d="M38.718,24.198l-6.639,6.638l-7.617,-0c-0.989,-0 -1.791,0.801 -1.791,1.791l0,10.746c0,0.989 0.802,1.791 1.791,1.791l7.617,0l6.639,6.639c1.122,1.121 3.058,0.333 3.058,-1.267l-0,-25.072c-0,-1.601 -1.938,-2.386 -3.058,-1.266Zm9.194,8.065c-0.864,-0.472 -1.954,-0.161 -2.433,0.706c-0.477,0.866 -0.161,1.955 0.705,2.433c0.964,0.529 1.562,1.526 1.562,2.598c0,1.073 -0.598,2.069 -1.561,2.598c-0.867,0.478 -1.182,1.567 -0.705,2.434c0.479,0.87 1.571,1.179 2.433,0.705c2.107,-1.161 3.416,-3.358 3.416,-5.738c-0,-2.379 -1.309,-4.576 -3.417,-5.736Z" style="fill-rule:nonzero;"/><path id="Icon" d="M38.718,22.198l-6.639,6.638l-7.617,-0c-0.989,-0 -1.791,0.801 -1.791,1.791l0,10.746c0,0.989 0.802,1.791 1.791,1.791l7.617,0l6.639,6.639c1.122,1.121 3.058,0.333 3.058,-1.267l-0,-25.072c-0,-1.601 -1.938,-2.386 -3.058,-1.266Zm9.194,8.065c-0.864,-0.472 -1.954,-0.161 -2.433,0.706c-0.477,0.866 -0.161,1.955 0.705,2.433c0.964,0.529 1.562,1.526 1.562,2.598c0,1.073 -0.598,2.069 -1.561,2.598c-0.867,0.478 -1.182,1.567 -0.705,2.434c0.479,0.87 1.571,1.179 2.433,0.705c2.107,-1.161 3.416,-3.358 3.416,-5.738c-0,-2.379 -1.309,-4.576 -3.417,-5.736Z" style="fill:#d8d8d8;fill-rule:nonzero;"/></svg>