<?xml version="1.0" encoding="UTF-8" standalone="no"?><!DOCTYPE svg PUBLIC "-//W3C//DTD SVG 1.1//EN" "http://www.w3.org/Graphics/SVG/1.1/DTD/svg11.dtd"><svg width="100%" height="100%" viewBox="0 0 72 72" version="1.1" xmlns="http://www.w3.org/2000/svg" xmlns:xlink="http://www.w3.org/1999/xlink" xml:space="preserve" xmlns:serif="http://www.serif.com/" style="fill-rule:evenodd;clip-rule:evenodd;stroke-linejoin:round;stroke-miterlimit:2;"><rect id="Volume_up" x="0" y="0" width="72" height="72" style="fill:none;"/><rect id="Background" x="0" y="-0" width="72" height="72" style="fill:#1f1f1f;"/><path id="Shadow" d="M31.554,24.197l-6.639,6.638l-7.617,0c-0.989,0 -1.791,0.802 -1.791,1.791l0,10.747c0,0.989 0.802,1.791 1.791,1.791l7.617,-0l6.639,6.638c1.122,1.122 3.058,0.334 3.058,-1.266l-0,-25.072c-0,-1.602 -1.937,-2.387 -3.058,-1.267Zm17.413,-3.812c-0.834,-0.547 -1.954,-0.316 -2.501,0.519c-0.548,0.833 -0.315,1.953 0.518,2.501c4.946,3.245 7.898,8.701 7.898,14.595c-0,5.894 -2.952,11.35 -7.898,14.596c-0.833,0.546 -1.066,1.667 -0.518,2.5c0.525,0.799 1.636,1.087 2.501,0.519c5.964,-3.915 9.526,-10.501 9.526,-17.615c-0,-7.115 -3.562,-13.7 -9.526,-17.615Zm2.362,17.615c-0,-4.742 -2.393,-9.101 -6.401,-11.66c-0.835,-0.533 -1.943,-0.285 -2.472,0.556c-0.529,0.842 -0.282,1.956 0.553,2.49c2.967,1.895 4.737,5.114 4.737,8.614c0,3.499 -1.77,6.718 -4.737,8.613c-0.835,0.533 -1.082,1.647 -0.553,2.49c0.486,0.773 1.576,1.13 2.472,0.556c4.008,-2.559 6.401,-6.918 6.401,-11.659Zm-10.58,-5.737c-0.865,-0.473 -1.955,-0.161 -2.434,0.705c-0.477,0.867 -0.161,1.955 0.705,2.434c0.964,0.529 1.562,1.525 1.562,2.598c0,1.073 -0.598,2.068 -1.561,2.597c-0.867,0.479 -1.182,1.567 -0.705,2.434c0.48,0.87 1.571,1.179 2.433,0.705c2.107,-1.16 3.416,-3.358 3.416,-5.737c0,-2.379 -1.309,-4.576 -3.416,-5.736Z" style="fill-rule:nonzero;"/><path id="Icon" d="M31.554,22.197l-6.639,6.638l-7.617,0c-0.989,0 -1.791,0.802 -1.791,1.791l0,10.747c0,0.989 0.802,1.791 1.791,1.791l7.617,-0l6.639,6.638c1.122,1.122 3.058,0.334 3.058,-1.266l-0,-25.072c-0,-1.602 -1.937,-2.387 -3.058,-1.267Zm17.413,-3.812c-0.834,-0.547 -1.954,-0.316 -2.501,0.519c-0.548,0.833 -0.315,1.953 0.518,2.501c4.946,3.245 7.898,8.701 7.898,14.595c-0,5.894 -2.952,11.35 -7.898,14.596c-0.833,0.546 -1.066,1.667 -0.518,2.5c0.525,0.799 1.636,1.087 2.501,0.519c5.964,-3.915 9.526,-10.501 9.526,-17.615c-0,-7.115 -3.562,-13.7 -9.526,-17.615Zm2.362,17.615c-0,-4.742 -2.393,-9.101 -6.401,-11.66c-0.835,-0.533 -1.943,-0.285 -2.472,0.556c-0.529,0.842 -0.282,1.956 0.553,2.49c2.967,1.895 4.737,5.114 4.737,8.614c0,3.499 -1.77,6.718 -4.737,8.613c-0.835,0.533 -1.082,1.647 -0.553,2.49c0.486,0.773 1.576,1.13 2.472,0.556c4.008,-2.559 6.401,-6.918 6.401,-11.659Zm-10.58,-5.737c-0.865,-0.473 -1.955,-0.161 -2.434,0.705c-0.477,0.867 -0.161,1.955 0.705,2.434c0.964,0.529 1.562,1.525 1.562,2.598c0,1.073 -0.598,2.068 -1.561,2.597c-0.867,0.479 -1.182,1.567 -0.705,2.434c0.48,0.87 1.571,1.179 2.433,0.705c2.107,-1.16 3.416,-3.358 3.416,-5.737c0,-2.379 -1.309,-4.576 -3.416,-5.736Z" style="fill:#d8d8d8;fill-rule:nonzero;"/></svg>